<svg xmlns="http://www.w3.org/2000/svg" xmlns:svg="http://www.w3.org/2000/svg" xmlns:xlink="http://www.w3.org/1999/xlink" id="svg8" width="1377.702" height="655.039" version="1.1" viewBox="0 0 364.517 173.312"><defs id="defs2"><marker style="overflow:visible" id="marker34330" orient="auto" refX="0" refY="0"><path style="fill:#fff;fill-rule:evenodd;stroke:#000;stroke-width:1.00000003pt;stroke-opacity:1" id="path34328" d="M 5.77,0 -2.88,5 V -5 Z" transform="matrix(0.8,0,0,0.8,-4.8,0)"/></marker><marker id="Arrow1Lstart" orient="auto" refX="0" refY="0" style="overflow:visible"><path id="path2506" d="M 0,0 5,-5 -12.5,0 5,5 Z" transform="matrix(0.8,0,0,0.8,10,0)" style="fill:#000;fill-opacity:1;fill-rule:evenodd;stroke:#000;stroke-width:1.00000003pt;stroke-opacity:1"/></marker><marker style="overflow:visible" id="marker15967" orient="auto" refX="0" refY="0"><path style="fill:#000;fill-opacity:1;fill-rule:evenodd;stroke:#000;stroke-width:1.00000003pt;stroke-opacity:1" id="path15965" d="M 0,0 5,-5 -12.5,0 5,5 Z" transform="matrix(-0.8,0,0,-0.8,-10,0)"/></marker><linearGradient id="linearGradient12976"><stop style="stop-color:#a5e2ea;stop-opacity:1" id="stop12972" offset="0"/><stop style="stop-color:#ace4ec;stop-opacity:0" id="stop12974" offset="1"/></linearGradient><marker id="EmptyTriangleOutL-1" orient="auto" refX="0" refY="0" style="overflow:visible"><path id="path2666-3" d="M 5.77,0 -2.88,5 V -5 Z" transform="matrix(0.8,0,0,0.8,-4.8,0)" style="fill:#fff;fill-rule:evenodd;stroke:#000;stroke-width:1.00000003pt;stroke-opacity:1"/></marker><marker id="EmptyTriangleOutL-8" orient="auto" refX="0" refY="0" style="overflow:visible"><path id="path2666-5" d="M 5.77,0 -2.88,5 V -5 Z" transform="matrix(0.8,0,0,0.8,-4.8,0)" style="fill:#fff;fill-rule:evenodd;stroke:#000;stroke-width:1.00000003pt;stroke-opacity:1"/></marker><marker id="EmptyTriangleOutL-8-2" orient="auto" refX="0" refY="0" style="overflow:visible"><path id="path2666-5-2" d="M 5.77,0 -2.88,5 V -5 Z" transform="matrix(0.8,0,0,0.8,-4.8,0)" style="fill:#fff;fill-rule:evenodd;stroke:#000;stroke-width:1.00000003pt;stroke-opacity:1"/></marker><marker id="EmptyTriangleOutL-8-2-6" orient="auto" refX="0" refY="0" style="overflow:visible"><path id="path2666-5-2-3" d="M 5.77,0 -2.88,5 V -5 Z" transform="matrix(0.8,0,0,0.8,-4.8,0)" style="fill:#fff;fill-rule:evenodd;stroke:#000;stroke-width:1.00000003pt;stroke-opacity:1"/></marker><marker id="EmptyTriangleOutL-8-2-1" orient="auto" refX="0" refY="0" style="overflow:visible"><path id="path2666-5-2-0" d="M 5.77,0 -2.88,5 V -5 Z" transform="matrix(0.8,0,0,0.8,-4.8,0)" style="fill:#fff;fill-rule:evenodd;stroke:#000;stroke-width:1.00000003pt;stroke-opacity:1"/></marker><linearGradient id="linearGradient12978" x1="134.175" x2="54.583" y1="218.488" y2="142.259" gradientUnits="userSpaceOnUse" xlink:href="#linearGradient12976"/><marker id="marker2830-0" orient="auto" refX="0" refY="0" style="overflow:visible"><path id="path2828-4" d="M 0,0 5,-5 -12.5,0 5,5 Z" transform="matrix(-0.8,0,0,-0.8,-10,0)" style="fill:#000;fill-opacity:1;fill-rule:evenodd;stroke:#000;stroke-width:1.00000003pt;stroke-opacity:1"/></marker><marker id="marker2830-0-3" orient="auto" refX="0" refY="0" style="overflow:visible"><path id="path2828-4-4" d="M 0,0 5,-5 -12.5,0 5,5 Z" transform="matrix(-0.8,0,0,-0.8,-10,0)" style="fill:#000;fill-opacity:1;fill-rule:evenodd;stroke:#000;stroke-width:1.00000003pt;stroke-opacity:1"/></marker><marker id="marker2830-0-3-4" orient="auto" refX="0" refY="0" style="overflow:visible"><path id="path2828-4-4-5" d="M 0,0 5,-5 -12.5,0 5,5 Z" transform="matrix(-0.8,0,0,-0.8,-10,0)" style="fill:#000;fill-opacity:1;fill-rule:evenodd;stroke:#000;stroke-width:1.00000003pt;stroke-opacity:1"/></marker><marker id="marker2830-0-3-8" orient="auto" refX="0" refY="0" style="overflow:visible"><path id="path2828-4-4-1" d="M 0,0 5,-5 -12.5,0 5,5 Z" transform="matrix(-0.8,0,0,-0.8,-10,0)" style="fill:#000;fill-opacity:1;fill-rule:evenodd;stroke:#000;stroke-width:1.00000003pt;stroke-opacity:1"/></marker><marker id="marker2830-0-3-8-3" orient="auto" refX="0" refY="0" style="overflow:visible"><path id="path2828-4-4-1-1" d="M 0,0 5,-5 -12.5,0 5,5 Z" transform="matrix(-0.8,0,0,-0.8,-10,0)" style="fill:#000;fill-opacity:1;fill-rule:evenodd;stroke:#000;stroke-width:1.00000003pt;stroke-opacity:1"/></marker><marker id="Arrow1Lstart-8" orient="auto" refX="0" refY="0" style="overflow:visible"><path id="path2506-1" d="M 0,0 5,-5 -12.5,0 5,5 Z" transform="matrix(0.8,0,0,0.8,10,0)" style="fill:#000;fill-opacity:1;fill-rule:evenodd;stroke:#000;stroke-width:1.00000003pt;stroke-opacity:1"/></marker><marker id="Arrow1Lstart-8-3" orient="auto" refX="0" refY="0" style="overflow:visible"><path id="path2506-1-9" d="M 0,0 5,-5 -12.5,0 5,5 Z" transform="matrix(0.8,0,0,0.8,10,0)" style="fill:#000;fill-opacity:1;fill-rule:evenodd;stroke:#000;stroke-width:1.00000003pt;stroke-opacity:1"/></marker><marker id="EmptyTriangleOutL-8-2-1-4" orient="auto" refX="0" refY="0" style="overflow:visible"><path id="path2666-5-2-0-1" d="M 5.77,0 -2.88,5 V -5 Z" transform="matrix(0.8,0,0,0.8,-4.8,0)" style="fill:#fff;fill-rule:evenodd;stroke:#000;stroke-width:1.00000003pt;stroke-opacity:1"/></marker><marker id="EmptyTriangleOutL-8-2-6-1" orient="auto" refX="0" refY="0" style="overflow:visible"><path id="path2666-5-2-3-8" d="M 5.77,0 -2.88,5 V -5 Z" transform="matrix(0.8,0,0,0.8,-4.8,0)" style="fill:#fff;fill-rule:evenodd;stroke:#000;stroke-width:1.00000003pt;stroke-opacity:1"/></marker><marker id="EmptyTriangleOutL-8-2-64" orient="auto" refX="0" refY="0" style="overflow:visible"><path id="path2666-5-2-34" d="M 5.77,0 -2.88,5 V -5 Z" transform="matrix(0.8,0,0,0.8,-4.8,0)" style="fill:#fff;fill-rule:evenodd;stroke:#000;stroke-width:1.00000003pt;stroke-opacity:1"/></marker><marker id="EmptyTriangleOutL-1-7" orient="auto" refX="0" refY="0" style="overflow:visible"><path id="path2666-3-0" d="M 5.77,0 -2.88,5 V -5 Z" transform="matrix(0.8,0,0,0.8,-4.8,0)" style="fill:#fff;fill-rule:evenodd;stroke:#000;stroke-width:1.00000003pt;stroke-opacity:1"/></marker><marker id="EmptyTriangleOutL-7" orient="auto" refX="0" refY="0" style="overflow:visible"><path id="path2666-4" d="M 5.77,0 -2.88,5 V -5 Z" transform="matrix(0.8,0,0,0.8,-4.8,0)" style="fill:#fff;fill-rule:evenodd;stroke:#000;stroke-width:1.00000003pt;stroke-opacity:1"/></marker><marker id="EmptyTriangleOutL-8-5" orient="auto" refX="0" refY="0" style="overflow:visible"><path id="path2666-5-3" d="M 5.77,0 -2.88,5 V -5 Z" transform="matrix(0.8,0,0,0.8,-4.8,0)" style="fill:#fff;fill-rule:evenodd;stroke:#000;stroke-width:1.00000003pt;stroke-opacity:1"/></marker><marker style="overflow:visible" id="marker15967-2" orient="auto" refX="0" refY="0"><path style="fill:#000;fill-opacity:1;fill-rule:evenodd;stroke:#000;stroke-width:1.00000003pt;stroke-opacity:1" id="path15965-5" d="M 0,0 5,-5 -12.5,0 5,5 Z" transform="matrix(-0.8,0,0,-0.8,-10,0)"/></marker><marker style="overflow:visible" id="marker15967-2-2" orient="auto" refX="0" refY="0"><path style="fill:#000;fill-opacity:1;fill-rule:evenodd;stroke:#000;stroke-width:1.00000003pt;stroke-opacity:1" id="path15965-5-7" d="M 0,0 5,-5 -12.5,0 5,5 Z" transform="matrix(-0.8,0,0,-0.8,-10,0)"/></marker><marker style="overflow:visible" id="marker15967-2-7" orient="auto" refX="0" refY="0"><path style="fill:#000;fill-opacity:1;fill-rule:evenodd;stroke:#000;stroke-width:1.00000003pt;stroke-opacity:1" id="path15965-5-5" d="M 0,0 5,-5 -12.5,0 5,5 Z" transform="matrix(-0.8,0,0,-0.8,-10,0)"/></marker><marker style="overflow:visible" id="marker15967-2-7-2" orient="auto" refX="0" refY="0"><path style="fill:#000;fill-opacity:1;fill-rule:evenodd;stroke:#000;stroke-width:1.00000003pt;stroke-opacity:1" id="path15965-5-5-8" d="M 0,0 5,-5 -12.5,0 5,5 Z" transform="matrix(-0.8,0,0,-0.8,-10,0)"/></marker><marker style="overflow:visible" id="marker15967-2-7-2-6" orient="auto" refX="0" refY="0"><path style="fill:#000;fill-opacity:1;fill-rule:evenodd;stroke:#000;stroke-width:1.00000003pt;stroke-opacity:1" id="path15965-5-5-8-0" d="M 0,0 5,-5 -12.5,0 5,5 Z" transform="matrix(-0.8,0,0,-0.8,-10,0)"/></marker><marker style="overflow:visible" id="marker34330-1" orient="auto" refX="0" refY="0"><path style="fill:#fff;fill-rule:evenodd;stroke:#000;stroke-width:1.00000003pt;stroke-opacity:1" id="path34328-4" d="M 5.77,0 -2.88,5 V -5 Z" transform="matrix(0.8,0,0,0.8,-4.8,0)"/></marker><marker style="overflow:visible" id="marker15967-2-7-2-1" orient="auto" refX="0" refY="0"><path style="fill:#000;fill-opacity:1;fill-rule:evenodd;stroke:#000;stroke-width:1.00000003pt;stroke-opacity:1" id="path15965-5-5-8-07" d="M 0,0 5,-5 -12.5,0 5,5 Z" transform="matrix(-0.8,0,0,-0.8,-10,0)"/></marker><marker style="overflow:visible" id="marker15967-2-7-2-1-8" orient="auto" refX="0" refY="0"><path style="fill:#000;fill-opacity:1;fill-rule:evenodd;stroke:#000;stroke-width:1.00000003pt;stroke-opacity:1" id="path15965-5-5-8-07-7" d="M 0,0 5,-5 -12.5,0 5,5 Z" transform="matrix(-0.8,0,0,-0.8,-10,0)"/></marker><marker style="overflow:visible" id="marker15967-2-7-2-1-8-4" orient="auto" refX="0" refY="0"><path style="fill:#000;fill-opacity:1;fill-rule:evenodd;stroke:#000;stroke-width:1.00000003pt;stroke-opacity:1" id="path15965-5-5-8-07-7-8" d="M 0,0 5,-5 -12.5,0 5,5 Z" transform="matrix(-0.8,0,0,-0.8,-10,0)"/></marker><marker id="EmptyTriangleOutL-8-2-4" orient="auto" refX="0" refY="0" style="overflow:visible"><path id="path2666-5-2-2" d="M 5.77,0 -2.88,5 V -5 Z" transform="matrix(0.8,0,0,0.8,-4.8,0)" style="fill:#fff;fill-rule:evenodd;stroke:#000;stroke-width:1.00000003pt;stroke-opacity:1"/></marker><marker id="EmptyTriangleOutL-8-2-4-6" orient="auto" refX="0" refY="0" style="overflow:visible"><path id="path2666-5-2-2-1" d="M 5.77,0 -2.88,5 V -5 Z" transform="matrix(0.8,0,0,0.8,-4.8,0)" style="fill:#fff;fill-rule:evenodd;stroke:#000;stroke-width:1.00000003pt;stroke-opacity:1"/></marker><marker id="EmptyTriangleOutL-1-4" orient="auto" refX="0" refY="0" style="overflow:visible"><path id="path2666-3-2" d="M 5.77,0 -2.88,5 V -5 Z" transform="matrix(0.8,0,0,0.8,-4.8,0)" style="fill:#fff;fill-rule:evenodd;stroke:#000;stroke-width:1.00000003pt;stroke-opacity:1"/></marker><marker style="overflow:visible" id="marker15967-2-3" orient="auto" refX="0" refY="0"><path style="fill:#000;fill-opacity:1;fill-rule:evenodd;stroke:#000;stroke-width:1.00000003pt;stroke-opacity:1" id="path15965-5-6" d="M 0,0 5,-5 -12.5,0 5,5 Z" transform="matrix(-0.8,0,0,-0.8,-10,0)"/></marker><marker style="overflow:visible" id="marker34330-1-5" orient="auto" refX="0" refY="0"><path style="fill:#fff;fill-rule:evenodd;stroke:#000;stroke-width:1.00000003pt;stroke-opacity:1" id="path34328-4-3" d="M 5.77,0 -2.88,5 V -5 Z" transform="matrix(0.8,0,0,0.8,-4.8,0)"/></marker><marker style="overflow:visible" id="marker15967-2-7-2-62" orient="auto" refX="0" refY="0"><path style="fill:#000;fill-opacity:1;fill-rule:evenodd;stroke:#000;stroke-width:1.00000003pt;stroke-opacity:1" id="path15965-5-5-8-9" d="M 0,0 5,-5 -12.5,0 5,5 Z" transform="matrix(-0.8,0,0,-0.8,-10,0)"/></marker></defs><metadata id="metadata5"/><g id="layer1" transform="translate(47.153499,48.9275)"><g id="g2152" transform="matrix(0.26458333,0,0,0.26458333,23.466669,9.2313047)"><g id="g2091"><flowRoot id="flowRoot2276" transform="translate(-88.692923,-34.889971)" xml:space="preserve" style="font-style:normal;font-variant:normal;font-weight:400;font-stretch:normal;font-size:8px;line-height:1.25;font-family:sans-serif;-inkscape-font-specification:'sans-serif, Normal';font-variant-ligatures:normal;font-variant-caps:normal;font-variant-numeric:normal;font-feature-settings:normal;text-align:center;letter-spacing:0;word-spacing:0;writing-mode:lr-tb;text-anchor:middle;fill:#000;fill-opacity:1;stroke:none"><flowRegion id="flowRegion2278"><rect id="rect2280" width="10.586" height="10.996" x="217.786" y="49.905"/></flowRegion><flowPara id="flowPara2282"/></flowRoot><g id="g3517" transform="translate(-316.04829,-8.7595895)"><g id="g3171-0-3-7" transform="matrix(3.7795276,0,0,3.7795276,185.4072,-254.6896)"><rect style="opacity:1;fill:none;fill-opacity:.61568627;stroke:#000;stroke-width:.40000001;stroke-miterlimit:4;stroke-dasharray:none;stroke-dashoffset:0;stroke-opacity:1" id="rect1490-6" width="47.656" height="25.066" x="115.563" y="85.762" ry=".232"/><path style="fill:#b9f9fe;fill-opacity:1;stroke:none;stroke-width:.06654067;stroke-miterlimit:4;stroke-dasharray:none;stroke-opacity:.99115044" id="rect5373-7-4-8" d="m 163.03851,110.66318 -6.15415,7.94471 -0.3859,-24.734269 6.48023,-7.68087 z"/><path style="fill:none;stroke:#000;stroke-width:.40000001;stroke-linecap:butt;stroke-linejoin:miter;stroke-miterlimit:4;stroke-dasharray:none;stroke-opacity:1" id="path5808" d="m 156.52956,119.28237 c 0.30211,-0.12314 6.65428,-8.38606 6.66605,-8.54064"/><rect style="opacity:1;fill:none;fill-opacity:.61568627;stroke:#000;stroke-width:.55000001;stroke-miterlimit:4;stroke-dasharray:none;stroke-dashoffset:0;stroke-opacity:1" id="rect1490" width="47.656" height="25.066" x="108.99" y="94.175" ry=".232"/><text style="font-style:normal;font-weight:400;font-size:10.58333302px;line-height:1.25;font-family:sans-serif;letter-spacing:0;word-spacing:0;fill:#000;fill-opacity:1;stroke:none;stroke-width:.26458332" id="text1184" x="114.485" y="100.712" xml:space="preserve"><tspan style="font-style:italic;font-variant:normal;font-weight:400;font-stretch:normal;font-size:6.3499999px;font-family:Laksaman;-inkscape-font-specification:'Laksaman, Italic';font-variant-ligatures:normal;font-variant-caps:normal;font-variant-numeric:normal;font-feature-settings:normal;text-align:start;writing-mode:lr-tb;text-anchor:start;opacity:.97000002;stroke-width:.26458332" id="tspan1186" x="114.485" y="100.712">BDWatchdog</tspan></text><path style="fill:none;stroke:#000;stroke-width:.40000001;stroke-linecap:butt;stroke-linejoin:miter;stroke-miterlimit:4;stroke-dasharray:none;stroke-opacity:1" id="path5808-5" d="m 156.39791,94.240851 c 0.30211,-0.12314 6.65428,-8.38606 6.66605,-8.54064"/><path style="fill:#b9f9fe;fill-opacity:1;stroke:none;stroke-width:.06654067;stroke-miterlimit:4;stroke-dasharray:none;stroke-opacity:.99115044" id="rect5373-7-4-8-6" d="m 115.63808,85.951511 -6.04155,7.922 46.83992,0.058 6.22805,-7.9868 z"/><path style="color:#000;font-style:normal;font-variant:normal;font-weight:400;font-stretch:normal;font-size:medium;line-height:normal;font-family:sans-serif;font-variant-ligatures:normal;font-variant-position:normal;font-variant-caps:normal;font-variant-numeric:normal;font-variant-alternates:normal;font-feature-settings:normal;text-indent:0;text-align:start;text-decoration:none;text-decoration-line:none;text-decoration-style:solid;text-decoration-color:#000;letter-spacing:normal;word-spacing:normal;text-transform:none;writing-mode:lr-tb;direction:ltr;text-orientation:mixed;dominant-baseline:auto;baseline-shift:baseline;text-anchor:start;white-space:normal;shape-padding:0;clip-rule:nonzero;display:inline;overflow:visible;visibility:visible;opacity:1;isolation:auto;mix-blend-mode:normal;color-interpolation:sRGB;color-interpolation-filters:linearRGB;solid-color:#000;solid-opacity:1;vector-effect:none;fill:#000;fill-opacity:1;fill-rule:nonzero;stroke:none;stroke-width:.55983055;stroke-linecap:butt;stroke-linejoin:miter;stroke-miterlimit:4;stroke-dasharray:none;stroke-dashoffset:0;stroke-opacity:1;color-rendering:auto;image-rendering:auto;shape-rendering:auto;text-rendering:auto;enable-background:accumulate" id="path5808-6-5-9" d="m 120.53421,86.304671 c -0.13609,0.16408 -0.57931,0.65872 -0.83833,0.9704 -0.518,0.62306 -1.23216,1.49409 -1.95378,2.36206 -0.72162,0.86786 -1.45308,1.73467 -1.99427,2.3856 -0.29026,0.34285 -0.57376,0.69363 -0.8604,1.04065 l -0.36235,0.44403 0.71641,-0.007 0.005,-0.005 0.005,-0.004 0.87055,-1.04071 c 0.54119,-0.65097 1.26254,-1.52953 1.98416,-2.39742 0.7216,-0.86797 1.43577,-1.7272 1.95377,-2.35027 0.25901,-0.31149 0.64808,-0.81313 0.78418,-0.9766 l 0.34327,-0.4323 -0.65357,0.0104 -1e-5,-2e-5 z"/><path style="color:#000;font-style:normal;font-variant:normal;font-weight:400;font-stretch:normal;font-size:medium;line-height:normal;font-family:sans-serif;font-variant-ligatures:normal;font-variant-position:normal;font-variant-caps:normal;font-variant-numeric:normal;font-variant-alternates:normal;font-feature-settings:normal;text-indent:0;text-align:start;text-decoration:none;text-decoration-line:none;text-decoration-style:solid;text-decoration-color:#000;letter-spacing:normal;word-spacing:normal;text-transform:none;writing-mode:lr-tb;direction:ltr;text-orientation:mixed;dominant-baseline:auto;baseline-shift:baseline;text-anchor:start;white-space:normal;shape-padding:0;clip-rule:nonzero;display:inline;overflow:visible;visibility:visible;opacity:1;isolation:auto;mix-blend-mode:normal;color-interpolation:sRGB;color-interpolation-filters:linearRGB;solid-color:#000;solid-opacity:1;vector-effect:none;fill:#000;fill-opacity:1;fill-rule:nonzero;stroke:none;stroke-width:.55983055;stroke-linecap:butt;stroke-linejoin:miter;stroke-miterlimit:4;stroke-dasharray:none;stroke-dashoffset:0;stroke-opacity:1;color-rendering:auto;image-rendering:auto;shape-rendering:auto;text-rendering:auto;enable-background:accumulate" id="path5808-6-5-9-9" d="m 125.81549,86.313771 c -0.13609,0.16408 -0.57931,0.65872 -0.83833,0.9704 -0.518,0.62306 -1.23217,1.49409 -1.95378,2.36206 -0.72162,0.86786 -1.45309,1.73467 -1.99428,2.3856 -0.29026,0.34285 -0.57377,0.69363 -0.8604,1.04065 l -0.36235,0.44403 0.7164,-0.007 0.005,-0.005 0.005,-0.005 0.87056,-1.04071 c 0.54119,-0.65096 1.26255,-1.52953 1.98416,-2.39742 0.72161,-0.86797 1.43577,-1.7272 1.95378,-2.35027 0.25901,-0.31148 0.64808,-0.81313 0.78418,-0.9766 l 0.34326,-0.4323 -0.65356,0.0104 -1e-5,-1e-5 z"/><path style="color:#000;font-style:normal;font-variant:normal;font-weight:400;font-stretch:normal;font-size:medium;line-height:normal;font-family:sans-serif;font-variant-ligatures:normal;font-variant-position:normal;font-variant-caps:normal;font-variant-numeric:normal;font-variant-alternates:normal;font-feature-settings:normal;text-indent:0;text-align:start;text-decoration:none;text-decoration-line:none;text-decoration-style:solid;text-decoration-color:#000;letter-spacing:normal;word-spacing:normal;text-transform:none;writing-mode:lr-tb;direction:ltr;text-orientation:mixed;dominant-baseline:auto;baseline-shift:baseline;text-anchor:start;white-space:normal;shape-padding:0;clip-rule:nonzero;display:inline;overflow:visible;visibility:visible;opacity:1;isolation:auto;mix-blend-mode:normal;color-interpolation:sRGB;color-interpolation-filters:linearRGB;solid-color:#000;solid-opacity:1;vector-effect:none;fill:#000;fill-opacity:1;fill-rule:nonzero;stroke:none;stroke-width:.55983055;stroke-linecap:butt;stroke-linejoin:miter;stroke-miterlimit:4;stroke-dasharray:none;stroke-dashoffset:0;stroke-opacity:1;color-rendering:auto;image-rendering:auto;shape-rendering:auto;text-rendering:auto;enable-background:accumulate" id="path5808-6-5-9-4" d="m 131.12796,86.295571 c -0.13609,0.16408 -0.57931,0.65872 -0.83833,0.9704 -0.518,0.62306 -1.23217,1.49409 -1.95378,2.36206 -0.72162,0.86786 -1.45309,1.73467 -1.99428,2.38559 -0.29026,0.34286 -0.57376,0.69364 -0.86039,1.04066 l -0.36235,0.44403 0.7164,-0.007 0.005,-0.005 0.005,-0.005 0.87055,-1.04071 c 0.54119,-0.65096 1.26255,-1.52953 1.98416,-2.39742 0.72161,-0.86797 1.43577,-1.7272 1.95378,-2.35027 0.25901,-0.31148 0.64808,-0.81313 0.78418,-0.9766 l 0.34326,-0.4323 -0.65356,0.0104 -1e-5,-1e-5 z"/><path style="color:#000;font-style:normal;font-variant:normal;font-weight:400;font-stretch:normal;font-size:medium;line-height:normal;font-family:sans-serif;font-variant-ligatures:normal;font-variant-position:normal;font-variant-caps:normal;font-variant-numeric:normal;font-variant-alternates:normal;font-feature-settings:normal;text-indent:0;text-align:start;text-decoration:none;text-decoration-line:none;text-decoration-style:solid;text-decoration-color:#000;letter-spacing:normal;word-spacing:normal;text-transform:none;writing-mode:lr-tb;direction:ltr;text-orientation:mixed;dominant-baseline:auto;baseline-shift:baseline;text-anchor:start;white-space:normal;shape-padding:0;clip-rule:nonzero;display:inline;overflow:visible;visibility:visible;opacity:1;isolation:auto;mix-blend-mode:normal;color-interpolation:sRGB;color-interpolation-filters:linearRGB;solid-color:#000;solid-opacity:1;vector-effect:none;fill:#000;fill-opacity:1;fill-rule:nonzero;stroke:none;stroke-width:.55983055;stroke-linecap:butt;stroke-linejoin:miter;stroke-miterlimit:4;stroke-dasharray:none;stroke-dashoffset:0;stroke-opacity:1;color-rendering:auto;image-rendering:auto;shape-rendering:auto;text-rendering:auto;enable-background:accumulate" id="path5808-6-5-9-9-5" d="m 136.40923,86.304671 c -0.13609,0.16408 -0.57931,0.65872 -0.83832,0.9704 -0.51801,0.62306 -1.23218,1.49409 -1.95379,2.36206 -0.72162,0.86786 -1.45309,1.73467 -1.99428,2.3856 -0.29026,0.34285 -0.57376,0.69363 -0.86039,1.04065 l -0.36235,0.44403 0.7164,-0.007 0.005,-0.005 0.005,-0.004 0.87055,-1.04071 c 0.5412,-0.65096 1.26255,-1.52953 1.98416,-2.39742 0.72161,-0.86797 1.43577,-1.7272 1.95379,-2.35027 0.25901,-0.31148 0.64808,-0.81313 0.78418,-0.9766 l 0.34326,-0.4323 -0.65356,0.0104 -1e-5,-2e-5 z"/><path style="color:#000;font-style:normal;font-variant:normal;font-weight:400;font-stretch:normal;font-size:medium;line-height:normal;font-family:sans-serif;font-variant-ligatures:normal;font-variant-position:normal;font-variant-caps:normal;font-variant-numeric:normal;font-variant-alternates:normal;font-feature-settings:normal;text-indent:0;text-align:start;text-decoration:none;text-decoration-line:none;text-decoration-style:solid;text-decoration-color:#000;letter-spacing:normal;word-spacing:normal;text-transform:none;writing-mode:lr-tb;direction:ltr;text-orientation:mixed;dominant-baseline:auto;baseline-shift:baseline;text-anchor:start;white-space:normal;shape-padding:0;clip-rule:nonzero;display:inline;overflow:visible;visibility:visible;opacity:1;isolation:auto;mix-blend-mode:normal;color-interpolation:sRGB;color-interpolation-filters:linearRGB;solid-color:#000;solid-opacity:1;vector-effect:none;fill:#000;fill-opacity:1;fill-rule:nonzero;stroke:none;stroke-width:.55983055;stroke-linecap:butt;stroke-linejoin:miter;stroke-miterlimit:4;stroke-dasharray:none;stroke-dashoffset:0;stroke-opacity:1;color-rendering:auto;image-rendering:auto;shape-rendering:auto;text-rendering:auto;enable-background:accumulate" id="path5808-6-5-9-93" d="m 141.7013,86.304671 c -0.13609,0.16408 -0.57931,0.65872 -0.83833,0.9704 -0.518,0.62306 -1.23216,1.49409 -1.95378,2.36206 -0.72162,0.86786 -1.45308,1.73467 -1.99427,2.3856 -0.29026,0.34285 -0.57376,0.69363 -0.8604,1.04065 l -0.36235,0.44403 0.71641,-0.007 0.005,-0.005 0.005,-0.004 0.87055,-1.04071 c 0.5412,-0.65096 1.26255,-1.52953 1.98416,-2.39742 0.72161,-0.86797 1.43577,-1.7272 1.95377,-2.35027 0.25901,-0.31148 0.64808,-0.81313 0.78418,-0.9766 l 0.34328,-0.4323 -0.65358,0.0104 -1e-5,-2e-5 z"/><path style="color:#000;font-style:normal;font-variant:normal;font-weight:400;font-stretch:normal;font-size:medium;line-height:normal;font-family:sans-serif;font-variant-ligatures:normal;font-variant-position:normal;font-variant-caps:normal;font-variant-numeric:normal;font-variant-alternates:normal;font-feature-settings:normal;text-indent:0;text-align:start;text-decoration:none;text-decoration-line:none;text-decoration-style:solid;text-decoration-color:#000;letter-spacing:normal;word-spacing:normal;text-transform:none;writing-mode:lr-tb;direction:ltr;text-orientation:mixed;dominant-baseline:auto;baseline-shift:baseline;text-anchor:start;white-space:normal;shape-padding:0;clip-rule:nonzero;display:inline;overflow:visible;visibility:visible;opacity:1;isolation:auto;mix-blend-mode:normal;color-interpolation:sRGB;color-interpolation-filters:linearRGB;solid-color:#000;solid-opacity:1;vector-effect:none;fill:#000;fill-opacity:1;fill-rule:nonzero;stroke:none;stroke-width:.55983055;stroke-linecap:butt;stroke-linejoin:miter;stroke-miterlimit:4;stroke-dasharray:none;stroke-dashoffset:0;stroke-opacity:1;color-rendering:auto;image-rendering:auto;shape-rendering:auto;text-rendering:auto;enable-background:accumulate" id="path5808-6-5-9-9-57" d="m 146.98257,86.313771 c -0.13609,0.16408 -0.57931,0.65872 -0.83833,0.9704 -0.518,0.62306 -1.23217,1.49409 -1.95378,2.36206 -0.72162,0.86786 -1.45308,1.73467 -1.99428,2.3856 -0.29025,0.34285 -0.57375,0.69363 -0.86039,1.04065 l -0.36235,0.44403 0.7164,-0.007 0.005,-0.005 0.005,-0.005 0.87056,-1.04071 c 0.54119,-0.65096 1.26254,-1.52953 1.98415,-2.39742 0.72161,-0.86797 1.43577,-1.7272 1.95378,-2.35027 0.25901,-0.31148 0.64808,-0.81313 0.78418,-0.9766 l 0.34326,-0.4323 -0.65355,0.0104 -2e-5,-1e-5 z"/><path style="color:#000;font-style:normal;font-variant:normal;font-weight:400;font-stretch:normal;font-size:medium;line-height:normal;font-family:sans-serif;font-variant-ligatures:normal;font-variant-position:normal;font-variant-caps:normal;font-variant-numeric:normal;font-variant-alternates:normal;font-feature-settings:normal;text-indent:0;text-align:start;text-decoration:none;text-decoration-line:none;text-decoration-style:solid;text-decoration-color:#000;letter-spacing:normal;word-spacing:normal;text-transform:none;writing-mode:lr-tb;direction:ltr;text-orientation:mixed;dominant-baseline:auto;baseline-shift:baseline;text-anchor:start;white-space:normal;shape-padding:0;clip-rule:nonzero;display:inline;overflow:visible;visibility:visible;opacity:1;isolation:auto;mix-blend-mode:normal;color-interpolation:sRGB;color-interpolation-filters:linearRGB;solid-color:#000;solid-opacity:1;vector-effect:none;fill:#000;fill-opacity:1;fill-rule:nonzero;stroke:none;stroke-width:.55983055;stroke-linecap:butt;stroke-linejoin:miter;stroke-miterlimit:4;stroke-dasharray:none;stroke-dashoffset:0;stroke-opacity:1;color-rendering:auto;image-rendering:auto;shape-rendering:auto;text-rendering:auto;enable-background:accumulate" id="path5808-6-5-9-0" d="m 152.29464,86.295571 c -0.13609,0.16408 -0.57931,0.65872 -0.83833,0.9704 -0.518,0.62306 -1.23216,1.49409 -1.95378,2.36206 -0.72162,0.86786 -1.45308,1.73467 -1.99427,2.38559 -0.29026,0.34286 -0.57376,0.69364 -0.8604,1.04066 l -0.36235,0.44403 0.71641,-0.007 0.005,-0.005 0.005,-0.005 0.87055,-1.04071 c 0.54119,-0.65096 1.26254,-1.52953 1.98416,-2.39742 0.7216,-0.86797 1.43577,-1.7272 1.95377,-2.35027 0.25901,-0.31148 0.64808,-0.81313 0.78418,-0.9766 l 0.34327,-0.4323 -0.65357,0.0104 -10e-6,-1e-5 z"/><path style="color:#000;font-style:normal;font-variant:normal;font-weight:400;font-stretch:normal;font-size:medium;line-height:normal;font-family:sans-serif;font-variant-ligatures:normal;font-variant-position:normal;font-variant-caps:normal;font-variant-numeric:normal;font-variant-alternates:normal;font-feature-settings:normal;text-indent:0;text-align:start;text-decoration:none;text-decoration-line:none;text-decoration-style:solid;text-decoration-color:#000;letter-spacing:normal;word-spacing:normal;text-transform:none;writing-mode:lr-tb;direction:ltr;text-orientation:mixed;dominant-baseline:auto;baseline-shift:baseline;text-anchor:start;white-space:normal;shape-padding:0;clip-rule:nonzero;display:inline;overflow:visible;visibility:visible;opacity:1;isolation:auto;mix-blend-mode:normal;color-interpolation:sRGB;color-interpolation-filters:linearRGB;solid-color:#000;solid-opacity:1;vector-effect:none;fill:#000;fill-opacity:1;fill-rule:nonzero;stroke:none;stroke-width:.55983055;stroke-linecap:butt;stroke-linejoin:miter;stroke-miterlimit:4;stroke-dasharray:none;stroke-dashoffset:0;stroke-opacity:1;color-rendering:auto;image-rendering:auto;shape-rendering:auto;text-rendering:auto;enable-background:accumulate" id="path5808-6-5-9-9-8" d="m 157.57591,86.304671 c -0.13609,0.16408 -0.57931,0.65872 -0.83833,0.9704 -0.518,0.62306 -1.23217,1.49409 -1.95378,2.36206 -0.72162,0.86786 -1.45308,1.73467 -1.99428,2.3856 -0.29025,0.34285 -0.57375,0.69363 -0.86039,1.04065 l -0.36235,0.44403 0.7164,-0.007 0.005,-0.005 0.005,-0.004 0.87056,-1.04071 c 0.54119,-0.65096 1.26254,-1.52953 1.98416,-2.39742 0.7216,-0.86797 1.43576,-1.7272 1.95377,-2.35027 0.25901,-0.31148 0.64808,-0.81313 0.78418,-0.9766 l 0.34327,-0.4323 -0.65356,0.0104 -1e-5,-2e-5 z"/><path style="fill:none;stroke:#000;stroke-width:.40000001;stroke-linecap:butt;stroke-linejoin:miter;stroke-miterlimit:4;stroke-dasharray:none;stroke-opacity:1" id="path5808-26" d="m 108.99004,94.174711 c 0.30211,-0.12314 6.66451,-8.32906 6.68212,-8.41348"/><path style="fill:#71f3fc;fill-opacity:1;stroke:none;stroke-width:.06862865;stroke-miterlimit:4;stroke-dasharray:none;stroke-opacity:.99115044" id="rect5373-7-4-2-0" d="m 156.379,119.00404 -47.11048,-0.0445 0.01,-24.514579 47.09434,-0.008 z"/><path style="fill:none;stroke:#000;stroke-width:.37384522;stroke-linecap:butt;stroke-linejoin:miter;stroke-miterlimit:4;stroke-dasharray:none;stroke-dashoffset:0;stroke-opacity:1" id="path1539" d="m 113.78408,105.63533 7.77681,10.64883 9.68832,-6.61194 11.15984,6.90736 6.74589,-12.40838"/><ellipse style="opacity:1;fill:#000;fill-opacity:1;stroke:#000;stroke-width:.37384522;stroke-miterlimit:4;stroke-dasharray:none;stroke-dashoffset:0;stroke-opacity:1" id="path1771" cx="113.829" cy="105.619" rx=".804" ry=".827"/><ellipse style="opacity:1;fill:#000;fill-opacity:1;stroke:#000;stroke-width:.37384522;stroke-miterlimit:4;stroke-dasharray:none;stroke-dashoffset:0;stroke-opacity:1" id="path1771-6" cx="148.974" cy="104.202" rx=".804" ry=".827"/><ellipse style="opacity:1;fill:#000;fill-opacity:1;stroke:#000;stroke-width:.37384522;stroke-miterlimit:4;stroke-dasharray:none;stroke-dashoffset:0;stroke-opacity:1" id="path1771-93-6" cx="131.394" cy="109.706" rx=".804" ry=".827"/><ellipse style="opacity:1;fill:#000;fill-opacity:1;stroke:#000;stroke-width:.37384522;stroke-miterlimit:4;stroke-dasharray:none;stroke-dashoffset:0;stroke-opacity:1" id="path1771-93-4" cx="121.532" cy="116.259" rx=".804" ry=".827"/><ellipse style="opacity:1;fill:#000;fill-opacity:1;stroke:#000;stroke-width:.37384522;stroke-miterlimit:4;stroke-dasharray:none;stroke-dashoffset:0;stroke-opacity:1" id="path1771-93" cx="142.723" cy="116.719" rx=".804" ry=".827"/><text style="font-style:normal;font-weight:400;font-size:10.58333302px;line-height:1.25;font-family:sans-serif;letter-spacing:0;word-spacing:0;fill:#000;fill-opacity:1;stroke:none;stroke-width:.26458332" id="text5931-7" x="112.132" y="100.708" xml:space="preserve"><tspan id="tspan5929-4" x="112.132" y="100.708" style="font-style:oblique;font-variant:normal;font-weight:700;font-stretch:normal;font-size:6.3499999px;font-family:Sawasdee;-inkscape-font-specification:'Sawasdee, Bold Oblique';font-variant-ligatures:normal;font-variant-caps:normal;font-variant-numeric:normal;font-feature-settings:normal;text-align:start;writing-mode:lr-tb;text-anchor:start;stroke-width:.26458332">BDWatchdog</tspan></text><g id="g2397-6-0" transform="matrix(0.39320766,0,0,0.35681186,121.22422,40.673261)"><path id="path2368-0-4" d="m 33.828864,81.931548 c 0.13788,8.080797 -5.105389,15.008537 -9.108879,20.057852 -4.790146,6.04147 -6.506135,8.17979 -9.239178,16.55047 -0.731953,8.59565 2.198327,13.71783 5.118892,17.15879 6.881743,5.15874 10.294408,5.78475 14.079613,5.95312 11.345548,-0.62976 13.459448,-3.3385 17.476645,-6.57545 3.218807,-3.39642 5.366267,-9.49271 4.918437,-16.3866 -1.47841,-8.01888 -3.461947,-12.45547 -6.803567,-17.00893 -0.56125,3.92233 -2.833527,6.35507 -5.176207,7.07084 1.19437,-6.06141 1.0901,-10.453145 -0.20995,-13.307445 C 42.685631,89.219082 39.403145,84.248486 33.828864,81.931548 Z" style="fill:#ff8a8a;fill-opacity:1;stroke:#ff0020;stroke-width:3;stroke-linecap:butt;stroke-linejoin:miter;stroke-miterlimit:4;stroke-dasharray:none;stroke-opacity:1"/><path id="path2370-2-2" d="m 35.456199,107.80233 c 1.051035,3.69239 0.991078,8.55622 -4.048997,11.51969 -3.789303,2.92593 -3.668158,2.90289 -6.85034,6.58447 -1.498583,4.23543 -1.050517,6.77341 -0.251057,8.84282 3.810417,5.89151 7.083023,5.77746 10.373507,5.86304 7.024816,0.13569 8.616298,-1.64734 11.008558,-4.39398 5.219767,-6.48682 1.83128,-12.36097 -0.18899,-16.6782 -3.591934,-6.22551 -5.572021,-8.28019 -10.042681,-11.73784 z" style="fill:#fff8ab;fill-opacity:1;stroke:#ffd26c;stroke-width:3;stroke-linecap:butt;stroke-linejoin:miter;stroke-miterlimit:4;stroke-dasharray:none;stroke-opacity:1"/></g></g></g></g></g></g></svg>