<svg xmlns="http://www.w3.org/2000/svg" xmlns:svg="http://www.w3.org/2000/svg" xmlns:xlink="http://www.w3.org/1999/xlink" id="svg8" width="1377.702" height="655.039" version="1.1" viewBox="0 0 364.517 173.312"><defs id="defs2"><marker style="overflow:visible" id="marker34330" orient="auto" refX="0" refY="0"><path style="fill:#fff;fill-rule:evenodd;stroke:#000;stroke-width:1.00000003pt;stroke-opacity:1" id="path34328" d="M 5.77,0 -2.88,5 V -5 Z" transform="matrix(0.8,0,0,0.8,-4.8,0)"/></marker><marker id="Arrow1Lstart" orient="auto" refX="0" refY="0" style="overflow:visible"><path id="path2506" d="M 0,0 5,-5 -12.5,0 5,5 Z" transform="matrix(0.8,0,0,0.8,10,0)" style="fill:#000;fill-opacity:1;fill-rule:evenodd;stroke:#000;stroke-width:1.00000003pt;stroke-opacity:1"/></marker><marker style="overflow:visible" id="marker15967" orient="auto" refX="0" refY="0"><path style="fill:#000;fill-opacity:1;fill-rule:evenodd;stroke:#000;stroke-width:1.00000003pt;stroke-opacity:1" id="path15965" d="M 0,0 5,-5 -12.5,0 5,5 Z" transform="matrix(-0.8,0,0,-0.8,-10,0)"/></marker><linearGradient id="linearGradient12976"><stop style="stop-color:#a5e2ea;stop-opacity:1" id="stop12972" offset="0"/><stop style="stop-color:#ace4ec;stop-opacity:0" id="stop12974" offset="1"/></linearGradient><marker id="EmptyTriangleOutL-1" orient="auto" refX="0" refY="0" style="overflow:visible"><path id="path2666-3" d="M 5.77,0 -2.88,5 V -5 Z" transform="matrix(0.8,0,0,0.8,-4.8,0)" style="fill:#fff;fill-rule:evenodd;stroke:#000;stroke-width:1.00000003pt;stroke-opacity:1"/></marker><marker id="EmptyTriangleOutL-8" orient="auto" refX="0" refY="0" style="overflow:visible"><path id="path2666-5" d="M 5.77,0 -2.88,5 V -5 Z" transform="matrix(0.8,0,0,0.8,-4.8,0)" style="fill:#fff;fill-rule:evenodd;stroke:#000;stroke-width:1.00000003pt;stroke-opacity:1"/></marker><marker id="EmptyTriangleOutL-8-2" orient="auto" refX="0" refY="0" style="overflow:visible"><path id="path2666-5-2" d="M 5.77,0 -2.88,5 V -5 Z" transform="matrix(0.8,0,0,0.8,-4.8,0)" style="fill:#fff;fill-rule:evenodd;stroke:#000;stroke-width:1.00000003pt;stroke-opacity:1"/></marker><marker id="EmptyTriangleOutL-8-2-6" orient="auto" refX="0" refY="0" style="overflow:visible"><path id="path2666-5-2-3" d="M 5.77,0 -2.88,5 V -5 Z" transform="matrix(0.8,0,0,0.8,-4.8,0)" style="fill:#fff;fill-rule:evenodd;stroke:#000;stroke-width:1.00000003pt;stroke-opacity:1"/></marker><marker id="EmptyTriangleOutL-8-2-1" orient="auto" refX="0" refY="0" style="overflow:visible"><path id="path2666-5-2-0" d="M 5.77,0 -2.88,5 V -5 Z" transform="matrix(0.8,0,0,0.8,-4.8,0)" style="fill:#fff;fill-rule:evenodd;stroke:#000;stroke-width:1.00000003pt;stroke-opacity:1"/></marker><linearGradient id="linearGradient12978" x1="134.175" x2="54.583" y1="218.488" y2="142.259" gradientUnits="userSpaceOnUse" xlink:href="#linearGradient12976"/><marker id="marker2830-0" orient="auto" refX="0" refY="0" style="overflow:visible"><path id="path2828-4" d="M 0,0 5,-5 -12.5,0 5,5 Z" transform="matrix(-0.8,0,0,-0.8,-10,0)" style="fill:#000;fill-opacity:1;fill-rule:evenodd;stroke:#000;stroke-width:1.00000003pt;stroke-opacity:1"/></marker><marker id="marker2830-0-3" orient="auto" refX="0" refY="0" style="overflow:visible"><path id="path2828-4-4" d="M 0,0 5,-5 -12.5,0 5,5 Z" transform="matrix(-0.8,0,0,-0.8,-10,0)" style="fill:#000;fill-opacity:1;fill-rule:evenodd;stroke:#000;stroke-width:1.00000003pt;stroke-opacity:1"/></marker><marker id="marker2830-0-3-4" orient="auto" refX="0" refY="0" style="overflow:visible"><path id="path2828-4-4-5" d="M 0,0 5,-5 -12.5,0 5,5 Z" transform="matrix(-0.8,0,0,-0.8,-10,0)" style="fill:#000;fill-opacity:1;fill-rule:evenodd;stroke:#000;stroke-width:1.00000003pt;stroke-opacity:1"/></marker><marker id="marker2830-0-3-8" orient="auto" refX="0" refY="0" style="overflow:visible"><path id="path2828-4-4-1" d="M 0,0 5,-5 -12.5,0 5,5 Z" transform="matrix(-0.8,0,0,-0.8,-10,0)" style="fill:#000;fill-opacity:1;fill-rule:evenodd;stroke:#000;stroke-width:1.00000003pt;stroke-opacity:1"/></marker><marker id="marker2830-0-3-8-3" orient="auto" refX="0" refY="0" style="overflow:visible"><path id="path2828-4-4-1-1" d="M 0,0 5,-5 -12.5,0 5,5 Z" transform="matrix(-0.8,0,0,-0.8,-10,0)" style="fill:#000;fill-opacity:1;fill-rule:evenodd;stroke:#000;stroke-width:1.00000003pt;stroke-opacity:1"/></marker><marker id="Arrow1Lstart-8" orient="auto" refX="0" refY="0" style="overflow:visible"><path id="path2506-1" d="M 0,0 5,-5 -12.5,0 5,5 Z" transform="matrix(0.8,0,0,0.8,10,0)" style="fill:#000;fill-opacity:1;fill-rule:evenodd;stroke:#000;stroke-width:1.00000003pt;stroke-opacity:1"/></marker><marker id="Arrow1Lstart-8-3" orient="auto" refX="0" refY="0" style="overflow:visible"><path id="path2506-1-9" d="M 0,0 5,-5 -12.5,0 5,5 Z" transform="matrix(0.8,0,0,0.8,10,0)" style="fill:#000;fill-opacity:1;fill-rule:evenodd;stroke:#000;stroke-width:1.00000003pt;stroke-opacity:1"/></marker><marker id="EmptyTriangleOutL-8-2-1-4" orient="auto" refX="0" refY="0" style="overflow:visible"><path id="path2666-5-2-0-1" d="M 5.77,0 -2.88,5 V -5 Z" transform="matrix(0.8,0,0,0.8,-4.8,0)" style="fill:#fff;fill-rule:evenodd;stroke:#000;stroke-width:1.00000003pt;stroke-opacity:1"/></marker><marker id="EmptyTriangleOutL-8-2-6-1" orient="auto" refX="0" refY="0" style="overflow:visible"><path id="path2666-5-2-3-8" d="M 5.77,0 -2.88,5 V -5 Z" transform="matrix(0.8,0,0,0.8,-4.8,0)" style="fill:#fff;fill-rule:evenodd;stroke:#000;stroke-width:1.00000003pt;stroke-opacity:1"/></marker><marker id="EmptyTriangleOutL-8-2-64" orient="auto" refX="0" refY="0" style="overflow:visible"><path id="path2666-5-2-34" d="M 5.77,0 -2.88,5 V -5 Z" transform="matrix(0.8,0,0,0.8,-4.8,0)" style="fill:#fff;fill-rule:evenodd;stroke:#000;stroke-width:1.00000003pt;stroke-opacity:1"/></marker><marker id="EmptyTriangleOutL-1-7" orient="auto" refX="0" refY="0" style="overflow:visible"><path id="path2666-3-0" d="M 5.77,0 -2.88,5 V -5 Z" transform="matrix(0.8,0,0,0.8,-4.8,0)" style="fill:#fff;fill-rule:evenodd;stroke:#000;stroke-width:1.00000003pt;stroke-opacity:1"/></marker><marker id="EmptyTriangleOutL-7" orient="auto" refX="0" refY="0" style="overflow:visible"><path id="path2666-4" d="M 5.77,0 -2.88,5 V -5 Z" transform="matrix(0.8,0,0,0.8,-4.8,0)" style="fill:#fff;fill-rule:evenodd;stroke:#000;stroke-width:1.00000003pt;stroke-opacity:1"/></marker><marker id="EmptyTriangleOutL-8-5" orient="auto" refX="0" refY="0" style="overflow:visible"><path id="path2666-5-3" d="M 5.77,0 -2.88,5 V -5 Z" transform="matrix(0.8,0,0,0.8,-4.8,0)" style="fill:#fff;fill-rule:evenodd;stroke:#000;stroke-width:1.00000003pt;stroke-opacity:1"/></marker><marker style="overflow:visible" id="marker15967-2" orient="auto" refX="0" refY="0"><path style="fill:#000;fill-opacity:1;fill-rule:evenodd;stroke:#000;stroke-width:1.00000003pt;stroke-opacity:1" id="path15965-5" d="M 0,0 5,-5 -12.5,0 5,5 Z" transform="matrix(-0.8,0,0,-0.8,-10,0)"/></marker><marker style="overflow:visible" id="marker15967-2-2" orient="auto" refX="0" refY="0"><path style="fill:#000;fill-opacity:1;fill-rule:evenodd;stroke:#000;stroke-width:1.00000003pt;stroke-opacity:1" id="path15965-5-7" d="M 0,0 5,-5 -12.5,0 5,5 Z" transform="matrix(-0.8,0,0,-0.8,-10,0)"/></marker><marker style="overflow:visible" id="marker15967-2-7" orient="auto" refX="0" refY="0"><path style="fill:#000;fill-opacity:1;fill-rule:evenodd;stroke:#000;stroke-width:1.00000003pt;stroke-opacity:1" id="path15965-5-5" d="M 0,0 5,-5 -12.5,0 5,5 Z" transform="matrix(-0.8,0,0,-0.8,-10,0)"/></marker><marker style="overflow:visible" id="marker15967-2-7-2" orient="auto" refX="0" refY="0"><path style="fill:#000;fill-opacity:1;fill-rule:evenodd;stroke:#000;stroke-width:1.00000003pt;stroke-opacity:1" id="path15965-5-5-8" d="M 0,0 5,-5 -12.5,0 5,5 Z" transform="matrix(-0.8,0,0,-0.8,-10,0)"/></marker><marker style="overflow:visible" id="marker15967-2-7-2-6" orient="auto" refX="0" refY="0"><path style="fill:#000;fill-opacity:1;fill-rule:evenodd;stroke:#000;stroke-width:1.00000003pt;stroke-opacity:1" id="path15965-5-5-8-0" d="M 0,0 5,-5 -12.5,0 5,5 Z" transform="matrix(-0.8,0,0,-0.8,-10,0)"/></marker><marker style="overflow:visible" id="marker34330-1" orient="auto" refX="0" refY="0"><path style="fill:#fff;fill-rule:evenodd;stroke:#000;stroke-width:1.00000003pt;stroke-opacity:1" id="path34328-4" d="M 5.77,0 -2.88,5 V -5 Z" transform="matrix(0.8,0,0,0.8,-4.8,0)"/></marker><marker style="overflow:visible" id="marker15967-2-7-2-1" orient="auto" refX="0" refY="0"><path style="fill:#000;fill-opacity:1;fill-rule:evenodd;stroke:#000;stroke-width:1.00000003pt;stroke-opacity:1" id="path15965-5-5-8-07" d="M 0,0 5,-5 -12.5,0 5,5 Z" transform="matrix(-0.8,0,0,-0.8,-10,0)"/></marker><marker style="overflow:visible" id="marker15967-2-7-2-1-8" orient="auto" refX="0" refY="0"><path style="fill:#000;fill-opacity:1;fill-rule:evenodd;stroke:#000;stroke-width:1.00000003pt;stroke-opacity:1" id="path15965-5-5-8-07-7" d="M 0,0 5,-5 -12.5,0 5,5 Z" transform="matrix(-0.8,0,0,-0.8,-10,0)"/></marker><marker style="overflow:visible" id="marker15967-2-7-2-1-8-4" orient="auto" refX="0" refY="0"><path style="fill:#000;fill-opacity:1;fill-rule:evenodd;stroke:#000;stroke-width:1.00000003pt;stroke-opacity:1" id="path15965-5-5-8-07-7-8" d="M 0,0 5,-5 -12.5,0 5,5 Z" transform="matrix(-0.8,0,0,-0.8,-10,0)"/></marker><marker id="EmptyTriangleOutL-8-2-4" orient="auto" refX="0" refY="0" style="overflow:visible"><path id="path2666-5-2-2" d="M 5.77,0 -2.88,5 V -5 Z" transform="matrix(0.8,0,0,0.8,-4.8,0)" style="fill:#fff;fill-rule:evenodd;stroke:#000;stroke-width:1.00000003pt;stroke-opacity:1"/></marker><marker id="EmptyTriangleOutL-8-2-4-6" orient="auto" refX="0" refY="0" style="overflow:visible"><path id="path2666-5-2-2-1" d="M 5.77,0 -2.88,5 V -5 Z" transform="matrix(0.8,0,0,0.8,-4.8,0)" style="fill:#fff;fill-rule:evenodd;stroke:#000;stroke-width:1.00000003pt;stroke-opacity:1"/></marker><marker id="EmptyTriangleOutL-1-4" orient="auto" refX="0" refY="0" style="overflow:visible"><path id="path2666-3-2" d="M 5.77,0 -2.88,5 V -5 Z" transform="matrix(0.8,0,0,0.8,-4.8,0)" style="fill:#fff;fill-rule:evenodd;stroke:#000;stroke-width:1.00000003pt;stroke-opacity:1"/></marker><marker style="overflow:visible" id="marker15967-2-3" orient="auto" refX="0" refY="0"><path style="fill:#000;fill-opacity:1;fill-rule:evenodd;stroke:#000;stroke-width:1.00000003pt;stroke-opacity:1" id="path15965-5-6" d="M 0,0 5,-5 -12.5,0 5,5 Z" transform="matrix(-0.8,0,0,-0.8,-10,0)"/></marker><marker style="overflow:visible" id="marker34330-1-5" orient="auto" refX="0" refY="0"><path style="fill:#fff;fill-rule:evenodd;stroke:#000;stroke-width:1.00000003pt;stroke-opacity:1" id="path34328-4-3" d="M 5.77,0 -2.88,5 V -5 Z" transform="matrix(0.8,0,0,0.8,-4.8,0)"/></marker><marker style="overflow:visible" id="marker15967-2-7-2-62" orient="auto" refX="0" refY="0"><path style="fill:#000;fill-opacity:1;fill-rule:evenodd;stroke:#000;stroke-width:1.00000003pt;stroke-opacity:1" id="path15965-5-5-8-9" d="M 0,0 5,-5 -12.5,0 5,5 Z" transform="matrix(-0.8,0,0,-0.8,-10,0)"/></marker></defs><metadata id="metadata5"/><g id="layer1" transform="translate(47.153499,48.9275)"><g id="g2152" transform="matrix(0.26458333,0,0,0.26458333,23.466669,9.2313047)"><g id="g2091"><flowRoot id="flowRoot2276" transform="translate(-88.692923,-34.889971)" xml:space="preserve" style="font-style:normal;font-variant:normal;font-weight:400;font-stretch:normal;font-size:8px;line-height:1.25;font-family:sans-serif;-inkscape-font-specification:'sans-serif, Normal';font-variant-ligatures:normal;font-variant-caps:normal;font-variant-numeric:normal;font-feature-settings:normal;text-align:center;letter-spacing:0;word-spacing:0;writing-mode:lr-tb;text-anchor:middle;fill:#000;fill-opacity:1;stroke:none"><flowRegion id="flowRegion2278"><rect id="rect2280" width="10.586" height="10.996" x="217.786" y="49.905"/></flowRegion><flowPara id="flowPara2282"/></flowRoot><g id="g3517" transform="translate(-316.04829,-8.7595895)"><g id="g3171-0-3-7" transform="matrix(3.7795276,0,0,3.7795276,185.4072,-254.6896)"><rect style="opacity:1;fill:none;fill-opacity:.61568627;stroke:#000;stroke-width:.55000001;stroke-miterlimit:4;stroke-dasharray:none;stroke-dashoffset:0;stroke-opacity:1" id="rect1490" width="47.656" height="25.066" x="113.488" y="93.778" ry=".232"/><path style="fill:#71f3fc;fill-opacity:1;stroke:none;stroke-width:.06862865;stroke-miterlimit:4;stroke-dasharray:none;stroke-opacity:.99115044" id="rect5373-7-4-2-0" d="m 160.81995,118.66762 -47.11049,-0.0445 0.01,-24.514566 47.09435,-0.008 z"/><path style="fill:none;stroke:#000;stroke-width:.37384522;stroke-linecap:butt;stroke-linejoin:miter;stroke-miterlimit:4;stroke-dasharray:none;stroke-dashoffset:0;stroke-opacity:1" id="path1539" d="m 118.282,105.23845 7.77681,10.64883 9.68832,-6.61194 11.15984,6.90736 6.74589,-12.40838"/><ellipse style="opacity:1;fill:#000;fill-opacity:1;stroke:#000;stroke-width:.37384522;stroke-miterlimit:4;stroke-dasharray:none;stroke-dashoffset:0;stroke-opacity:1" id="path1771" cx="118.327" cy="105.223" rx=".804" ry=".827"/><ellipse style="opacity:1;fill:#000;fill-opacity:1;stroke:#000;stroke-width:.37384522;stroke-miterlimit:4;stroke-dasharray:none;stroke-dashoffset:0;stroke-opacity:1" id="path1771-6" cx="153.472" cy="103.805" rx=".804" ry=".827"/><ellipse style="opacity:1;fill:#000;fill-opacity:1;stroke:#000;stroke-width:.37384522;stroke-miterlimit:4;stroke-dasharray:none;stroke-dashoffset:0;stroke-opacity:1" id="path1771-93-6" cx="135.892" cy="109.309" rx=".804" ry=".827"/><ellipse style="opacity:1;fill:#000;fill-opacity:1;stroke:#000;stroke-width:.37384522;stroke-miterlimit:4;stroke-dasharray:none;stroke-dashoffset:0;stroke-opacity:1" id="path1771-93-4" cx="126.03" cy="115.862" rx=".804" ry=".827"/><ellipse style="opacity:1;fill:#000;fill-opacity:1;stroke:#000;stroke-width:.37384522;stroke-miterlimit:4;stroke-dasharray:none;stroke-dashoffset:0;stroke-opacity:1" id="path1771-93" cx="147.221" cy="116.322" rx=".804" ry=".827"/><g id="g2397-6-0" transform="matrix(0.39320766,0,0,0.35681186,121.57685,54.206231)"><path id="path2368-0-4" d="m 33.828864,81.931548 c 0.13788,8.080797 -5.105389,15.008537 -9.108879,20.057852 -4.790146,6.04147 -6.506135,8.17979 -9.239178,16.55047 -0.731953,8.59565 2.198327,13.71783 5.118892,17.15879 6.881743,5.15874 10.294408,5.78475 14.079613,5.95312 11.345548,-0.62976 13.459448,-3.3385 17.476645,-6.57545 3.218807,-3.39642 5.366267,-9.49271 4.918437,-16.3866 -1.47841,-8.01888 -3.461947,-12.45547 -6.803567,-17.00893 -0.56125,3.92233 -2.833527,6.35507 -5.176207,7.07084 1.19437,-6.06141 1.0901,-10.453145 -0.20995,-13.307445 C 42.685631,89.219082 39.403145,84.248486 33.828864,81.931548 Z" style="fill:#ff8a8a;fill-opacity:1;stroke:#ff0020;stroke-width:3;stroke-linecap:butt;stroke-linejoin:miter;stroke-miterlimit:4;stroke-dasharray:none;stroke-opacity:1"/><path id="path2370-2-2" d="m 35.456199,107.80233 c 1.051035,3.69239 0.991078,8.55622 -4.048997,11.51969 -3.789303,2.92593 -3.668158,2.90289 -6.85034,6.58447 -1.498583,4.23543 -1.050517,6.77341 -0.251057,8.84282 3.810417,5.89151 7.083023,5.77746 10.373507,5.86304 7.024816,0.13569 8.616298,-1.64734 11.008558,-4.39398 5.219767,-6.48682 1.83128,-12.36097 -0.18899,-16.6782 -3.591934,-6.22551 -5.572021,-8.28019 -10.042681,-11.73784 z" style="fill:#fff8ab;fill-opacity:1;stroke:#ffd26c;stroke-width:3;stroke-linecap:butt;stroke-linejoin:miter;stroke-miterlimit:4;stroke-dasharray:none;stroke-opacity:1"/></g></g></g></g></g></g></svg>