<svg xmlns="http://www.w3.org/2000/svg" xmlns:svg="http://www.w3.org/2000/svg" id="svg2" width="1604" height="534.667" version="1.1" viewBox="0 0 1604 534.667"><metadata id="metadata8"/><path style="fill:#ccc;fill-rule:evenodd;stroke:#e8e8e8;stroke-width:1.97500002;stroke-linecap:butt;stroke-linejoin:miter;stroke-miterlimit:4;stroke-dasharray:none;stroke-opacity:1" id="path726-3-6-7-6-3-1-4" d="M 1593.6564,233.18415 87.568181,233.0831"/><path style="fill:#ccc;fill-rule:evenodd;stroke:#e8e8e8;stroke-width:1.97500002;stroke-linecap:butt;stroke-linejoin:miter;stroke-miterlimit:4;stroke-dasharray:none;stroke-opacity:1" id="path726-3-6-7-6-3-1" d="M 1593.5212,313.02096 87.433007,312.91991"/><path style="fill:#ccc;fill-rule:evenodd;stroke:#e8e8e8;stroke-width:1.97500002;stroke-linecap:butt;stroke-linejoin:miter;stroke-miterlimit:4;stroke-dasharray:none;stroke-opacity:1" id="path726-3-6-7-6-3-1-9" d="M 1592.9111,153.72328 86.822829,153.62223"/><path style="fill:#ccc;fill-rule:evenodd;stroke:#e8e8e8;stroke-width:1.97500002;stroke-linecap:butt;stroke-linejoin:miter;stroke-miterlimit:4;stroke-dasharray:none;stroke-opacity:1" id="path726-3-6-7-6-3" d="M 1591.491,394.18022 85.402838,394.07917"/><flowRoot id="flowRoot12" xml:space="preserve" style="font-style:normal;font-weight:400;font-size:40px;line-height:125%;font-family:sans-serif;letter-spacing:0;word-spacing:0;fill:#000;fill-opacity:1;stroke:none;stroke-width:1px;stroke-linecap:butt;stroke-linejoin:miter;stroke-opacity:1"><flowRegion id="flowRegion14"><rect id="rect16" width="30.948" height="56.877" x="14.219" y="365.708"/></flowRegion><flowPara id="flowPara18">CPUsss</flowPara></flowRoot><flowRoot id="flowRoot20" transform="matrix(0,-1,0.99157897,0,-376.32197,554.60842)" xml:space="preserve" style="font-style:normal;font-weight:400;font-size:26.66666603px;line-height:125%;font-family:sans-serif;letter-spacing:0;word-spacing:0;fill:#000;fill-opacity:1;stroke:none;stroke-width:1px;stroke-linecap:butt;stroke-linejoin:miter;stroke-opacity:1"><flowRegion id="flowRegion22" style="font-size:26.66666603px"><rect id="rect24" width="150.861" height="91.839" x="242.824" y="378.103" style="font-size:26.66666603px"/></flowRegion><flowPara id="flowPara26" style="font-size:24.10169601px">CPU (%)</flowPara></flowRoot><flowRoot id="flowRoot28" xml:space="preserve" style="fill:#000;stroke:none;stroke-opacity:1;stroke-width:1px;stroke-linejoin:miter;stroke-linecap:butt;fill-opacity:1;font-family:sans-serif;font-style:normal;font-weight:400;font-size:40px;line-height:125%;letter-spacing:0;word-spacing:0"><flowRegion id="flowRegion30"><rect id="rect32" width="105.869" height="44.358" x="30.164" y="300.454"/></flowRegion><flowPara id="flowPara34"/></flowRoot><path id="path84" d="m -49.431641,205.01562 c -0.0985,0.25281 -0.192375,0.50891 -0.291015,0.76172 0.236133,0.3881 0.469042,0.78036 0.74414,1.11914 -0.08779,0.90858 -0.173219,1.81629 -0.263672,2.72461 -5.44e-4,0.005 -0.0014,0.004 -0.002,0.01 0.370022,0.21445 0.720224,0.49924 1.042969,0.87695 0.114008,-0.4957 0.237544,-0.99004 0.330078,-1.49023 0.258069,-1.39499 0.367904,-2.46665 0.455078,-3.52344 -0.38697,-0.26469 -1.045396,-0.4236 -2.015625,-0.47852 z M -62.9375,293.58398 c -0.160346,0.61686 -0.311028,1.23605 -0.476562,1.85157 -0.746963,2.77744 -1.662143,5.50748 -2.523438,8.25195 0.941277,-1.54804 1.749688,-3.18548 2.519531,-4.8125 0.197247,-1.80149 0.350197,-3.55075 0.480469,-5.29102 z m -13.410156,15.37891 c -0.238963,0.12817 -0.419764,0.31097 -0.554688,0.53711 0.01001,0.19556 0.01623,0.39538 0.02539,0.5918 0.177923,-0.37577 0.353695,-0.75207 0.529297,-1.12891 z" style="fill:#fff;fill-opacity:1"/><text style="font-style:normal;font-weight:400;font-size:40px;line-height:125%;font-family:sans-serif;letter-spacing:0;word-spacing:0;fill:#000;fill-opacity:1;stroke:none;stroke-width:1px;stroke-linecap:butt;stroke-linejoin:miter;stroke-opacity:1" id="text132" x="34.901" y="78.107" xml:space="preserve"><tspan id="tspan130" x="34.901" y="78.107" dx="0" style="font-size:18.66666603px;letter-spacing:-1px;word-spacing:0">2,500</tspan></text><text style="font-style:normal;font-weight:400;font-size:40px;line-height:125%;font-family:sans-serif;letter-spacing:0;word-spacing:0;fill:#000;fill-opacity:1;stroke:none;stroke-width:1px;stroke-linecap:butt;stroke-linejoin:miter;stroke-opacity:1" id="text132-7" x="33.897" y="157.994" xml:space="preserve"><tspan id="tspan130-5" x="33.897" y="157.994" style="font-size:18.66666603px;letter-spacing:-1px">2,000</tspan></text><text style="font-style:normal;font-weight:400;font-size:40px;line-height:125%;font-family:sans-serif;letter-spacing:0;word-spacing:0;fill:#000;fill-opacity:1;stroke:none;stroke-width:1px;stroke-linecap:butt;stroke-linejoin:miter;stroke-opacity:1" id="text132-7-3" x="35.661" y="237.694" xml:space="preserve"><tspan id="tspan130-5-5" x="35.661" y="237.694" style="font-size:18.66666603px;letter-spacing:-1px">1,500</tspan></text><text style="font-style:normal;font-weight:400;font-size:40px;line-height:125%;font-family:sans-serif;letter-spacing:0;word-spacing:0;fill:#000;fill-opacity:1;stroke:none;stroke-width:1px;stroke-linecap:butt;stroke-linejoin:miter;stroke-opacity:1" id="text132-7-3-6" x="356.85" y="490.416" xml:space="preserve"><tspan id="tspan130-5-5-2" x="356.85" y="490.416" style="font-size:18.66666603px;letter-spacing:-1px">1,000</tspan></text><text style="font-style:normal;font-weight:400;font-size:40px;line-height:125%;font-family:sans-serif;letter-spacing:0;word-spacing:0;fill:#000;fill-opacity:1;stroke:none;stroke-width:1px;stroke-linecap:butt;stroke-linejoin:miter;stroke-opacity:1" id="text132-7-3-6-9" x="35.559" y="397.705" xml:space="preserve"><tspan id="tspan130-5-5-2-1" x="35.559" y="397.705" style="font-size:18.66666603px;letter-spacing:-1px">500</tspan></text><text style="font-style:normal;font-weight:400;font-size:40px;line-height:125%;font-family:sans-serif;letter-spacing:0;word-spacing:0;fill:#000;fill-opacity:1;stroke:none;stroke-width:1px;stroke-linecap:butt;stroke-linejoin:miter;stroke-opacity:1" id="text132-7-3-6-9-2" x="70.52" y="477.753" xml:space="preserve"><tspan id="tspan130-5-5-2-1-7" x="70.52" y="477.753" style="font-size:18.66666603px">0</tspan></text><text style="font-style:normal;font-weight:400;font-size:40px;line-height:125%;font-family:sans-serif;letter-spacing:0;word-spacing:0;fill:#000;fill-opacity:1;stroke:none;stroke-width:1px;stroke-linecap:butt;stroke-linejoin:miter;stroke-opacity:1" id="text132-7-3-6-9-2-0" x="80.846" y="490.23" xml:space="preserve"><tspan id="tspan130-5-5-2-1-7-9" x="80.846" y="490.23" style="font-size:18.66666603px">0</tspan></text><text style="font-style:normal;font-weight:400;font-size:40px;line-height:125%;font-family:sans-serif;letter-spacing:0;word-spacing:0;fill:#000;fill-opacity:1;stroke:none;stroke-width:1px;stroke-linecap:butt;stroke-linejoin:miter;stroke-opacity:1" id="text132-7-3-6-9-3" x="113.766" y="490.021" xml:space="preserve"><tspan id="tspan130-5-5-2-1-6" x="113.766" y="490.021" style="font-size:18.66666603px;letter-spacing:-1px">200</tspan></text><text style="font-style:normal;font-weight:400;font-size:40px;line-height:125%;font-family:sans-serif;letter-spacing:0;word-spacing:0;fill:#000;fill-opacity:1;stroke:none;stroke-width:1px;stroke-linecap:butt;stroke-linejoin:miter;stroke-opacity:1" id="text132-7-3-6-9-0" x="172.943" y="490.439" xml:space="preserve"><tspan id="tspan130-5-5-2-1-62" x="172.943" y="490.439" style="font-size:18.66666603px;letter-spacing:-1px">400</tspan></text><text style="font-style:normal;font-weight:400;font-size:40px;line-height:125%;font-family:sans-serif;letter-spacing:0;word-spacing:0;fill:#000;fill-opacity:1;stroke:none;stroke-width:1px;stroke-linecap:butt;stroke-linejoin:miter;stroke-opacity:1" id="text132-7-3-6-9-6" x="231.702" y="489.812" xml:space="preserve"><tspan id="tspan130-5-5-2-1-1" x="231.702" y="489.812" style="font-size:18.66666603px;letter-spacing:-1px">600</tspan></text><text style="font-style:normal;font-weight:400;font-size:40px;line-height:125%;font-family:sans-serif;letter-spacing:0;word-spacing:0;fill:#000;fill-opacity:1;stroke:none;stroke-width:1px;stroke-linecap:butt;stroke-linejoin:miter;stroke-opacity:1" id="text132-7-3-6-9-8" x="291.507" y="490.021" xml:space="preserve"><tspan id="tspan130-5-5-2-1-79" x="291.507" y="490.021" style="font-size:18.66666603px;letter-spacing:-1px">800</tspan></text><text style="font-style:normal;font-weight:400;font-size:40px;line-height:125%;font-family:sans-serif;letter-spacing:0;word-spacing:0;fill:#000;fill-opacity:1;stroke:none;stroke-width:1px;stroke-linecap:butt;stroke-linejoin:miter;stroke-opacity:1" id="text132-7-3-6-2" x="34.871" y="317.81" xml:space="preserve"><tspan id="tspan130-5-5-2-0" x="34.871" y="317.81" style="font-size:18.66666603px;letter-spacing:-1px">1,000</tspan></text><text style="font-style:normal;font-weight:400;font-size:40px;line-height:125%;font-family:sans-serif;letter-spacing:0;word-spacing:0;fill:#000;fill-opacity:1;stroke:none;stroke-width:1px;stroke-linecap:butt;stroke-linejoin:miter;stroke-opacity:1" id="text132-7-3-6-23-5" x="416.176" y="490.571" xml:space="preserve"><tspan id="tspan130-5-5-2-7-9" x="416.176" y="490.571" style="font-size:18.66666603px;letter-spacing:-1px">1,200</tspan></text><text style="font-style:normal;font-weight:400;font-size:40px;line-height:125%;font-family:sans-serif;letter-spacing:0;word-spacing:0;fill:#000;fill-opacity:1;stroke:none;stroke-width:1px;stroke-linecap:butt;stroke-linejoin:miter;stroke-opacity:1" id="text132-7-3-6-23-5-2" x="476.176" y="490.571" xml:space="preserve"><tspan id="tspan130-5-5-2-7-9-2" x="476.176" y="490.571" style="font-size:18.66666603px;letter-spacing:-1px">1,400</tspan></text><text style="font-style:normal;font-weight:400;font-size:40px;line-height:125%;font-family:sans-serif;letter-spacing:0;word-spacing:0;fill:#000;fill-opacity:1;stroke:none;stroke-width:1px;stroke-linecap:butt;stroke-linejoin:miter;stroke-opacity:1" id="text132-7-3-6-23-5-2-8" x="534.176" y="490.571" xml:space="preserve"><tspan id="tspan130-5-5-2-7-9-2-9" x="534.176" y="490.571" style="font-size:18.66666603px;letter-spacing:-1px">1,600</tspan></text><text style="font-style:normal;font-weight:400;font-size:40px;line-height:125%;font-family:sans-serif;letter-spacing:0;word-spacing:0;fill:#000;fill-opacity:1;stroke:none;stroke-width:1px;stroke-linecap:butt;stroke-linejoin:miter;stroke-opacity:1" id="text132-7-3-6-23-5-2-8-7" x="594.176" y="490.571" xml:space="preserve"><tspan id="tspan130-5-5-2-7-9-2-9-3" x="594.176" y="490.571" style="font-size:18.66666603px;letter-spacing:-1px">1,800</tspan></text><text style="font-style:normal;font-weight:400;font-size:40px;line-height:125%;font-family:sans-serif;letter-spacing:0;word-spacing:0;fill:#000;fill-opacity:1;stroke:none;stroke-width:1px;stroke-linecap:butt;stroke-linejoin:miter;stroke-opacity:1" id="text132-7-3-6-23-5-2-8-7-6" x="652.831" y="490.473" xml:space="preserve"><tspan id="tspan130-5-5-2-7-9-2-9-3-1" x="652.831" y="490.473" style="font-size:18.66666603px;letter-spacing:-1px">2,000</tspan></text><text style="font-style:normal;font-weight:400;font-size:40px;line-height:125%;font-family:sans-serif;letter-spacing:0;word-spacing:0;fill:#000;fill-opacity:1;stroke:none;stroke-width:1px;stroke-linecap:butt;stroke-linejoin:miter;stroke-opacity:1" id="text132-7-3-6-23-5-2-8-7-6-2" x="711.101" y="490.08" xml:space="preserve"><tspan id="tspan130-5-5-2-7-9-2-9-3-1-9" x="711.101" y="490.08" style="font-size:18.66666603px;letter-spacing:-1px">2,200</tspan></text><text style="font-style:normal;font-weight:400;font-size:40px;line-height:125%;font-family:sans-serif;letter-spacing:0;word-spacing:0;fill:#000;fill-opacity:1;stroke:none;stroke-width:1px;stroke-linecap:butt;stroke-linejoin:miter;stroke-opacity:1" id="text132-7-3-6-23-5-2-8-7-6-2-3" x="771.31" y="489.87" xml:space="preserve"><tspan id="tspan130-5-5-2-7-9-2-9-3-1-9-1" x="771.31" y="489.87" style="font-size:18.66666603px;letter-spacing:-1px">2,400</tspan></text><text style="font-style:normal;font-weight:400;font-size:40px;line-height:125%;font-family:sans-serif;letter-spacing:0;word-spacing:0;fill:#000;fill-opacity:1;stroke:none;stroke-width:1px;stroke-linecap:butt;stroke-linejoin:miter;stroke-opacity:1" id="text132-7-3-6-23-5-2-8-7-6-2-3-9" x="829.484" y="489.973" xml:space="preserve"><tspan id="tspan130-5-5-2-7-9-2-9-3-1-9-1-4" x="829.484" y="489.973" style="font-size:18.66666603px;letter-spacing:-1px">2,600</tspan></text><text style="font-style:normal;font-weight:400;font-size:40px;line-height:125%;font-family:sans-serif;letter-spacing:0;word-spacing:0;fill:#000;fill-opacity:1;stroke:none;stroke-width:1px;stroke-linecap:butt;stroke-linejoin:miter;stroke-opacity:1" id="text132-7-3-6-23-5-2-8-7-6-2-3-9-7" x="888.921" y="489.865" xml:space="preserve"><tspan id="tspan130-5-5-2-7-9-2-9-3-1-9-1-4-8" x="888.921" y="489.865" style="font-size:18.66666603px;letter-spacing:-1px">2,800</tspan></text><text style="font-style:normal;font-weight:400;font-size:40px;line-height:125%;font-family:sans-serif;letter-spacing:0;word-spacing:0;fill:#000;fill-opacity:1;stroke:none;stroke-width:1px;stroke-linecap:butt;stroke-linejoin:miter;stroke-opacity:1" id="text132-7-3-6-23-5-2-8-7-6-2-3-9-7-4" x="948" y="489.77" xml:space="preserve"><tspan id="tspan130-5-5-2-7-9-2-9-3-1-9-1-4-8-5" x="948" y="489.77" style="font-size:18.66666603px;letter-spacing:-1px">3,000</tspan></text><text style="font-style:normal;font-weight:400;font-size:40px;line-height:125%;font-family:sans-serif;letter-spacing:0;word-spacing:0;fill:#000;fill-opacity:1;stroke:none;stroke-width:1px;stroke-linecap:butt;stroke-linejoin:miter;stroke-opacity:1" id="text132-7-3-6-23-5-2-8-7-6-2-3-9-7-4-0" x="1006.517" y="489.905" xml:space="preserve"><tspan id="tspan130-5-5-2-7-9-2-9-3-1-9-1-4-8-5-3" x="1006.517" y="489.905" style="font-size:18.66666603px;letter-spacing:-1px">3,200</tspan></text><text style="font-style:normal;font-weight:400;font-size:40px;line-height:125%;font-family:sans-serif;letter-spacing:0;word-spacing:0;fill:#000;fill-opacity:1;stroke:none;stroke-width:1px;stroke-linecap:butt;stroke-linejoin:miter;stroke-opacity:1" id="text132-7-3-6-23-5-2-8-7-6-2-3-9-7-4-6" x="1065.824" y="489.941" xml:space="preserve"><tspan id="tspan130-5-5-2-7-9-2-9-3-1-9-1-4-8-5-1" x="1065.824" y="489.941" style="font-size:18.66666603px;letter-spacing:-1px">3,400</tspan></text><text style="font-style:normal;font-weight:400;font-size:40px;line-height:125%;font-family:sans-serif;letter-spacing:0;word-spacing:0;fill:#000;fill-opacity:1;stroke:none;stroke-width:1px;stroke-linecap:butt;stroke-linejoin:miter;stroke-opacity:1" id="text132-7-3-6-23-5-2-8-7-6-2-3-9-7-4-06" x="1125.927" y="490.15" xml:space="preserve"><tspan id="tspan130-5-5-2-7-9-2-9-3-1-9-1-4-8-5-32" x="1125.927" y="490.15" style="font-size:18.66666603px;letter-spacing:-1px">3,600</tspan></text><text style="font-style:normal;font-weight:400;font-size:40px;line-height:125%;font-family:sans-serif;letter-spacing:0;word-spacing:0;fill:#000;fill-opacity:1;stroke:none;stroke-width:1px;stroke-linecap:butt;stroke-linejoin:miter;stroke-opacity:1" id="text132-7-3-6-23-5-2-8-7-6-2-3-9-7-4-061" x="1184.567" y="490.027" xml:space="preserve"><tspan id="tspan130-5-5-2-7-9-2-9-3-1-9-1-4-8-5-5" x="1184.567" y="490.027" style="font-size:18.66666603px;letter-spacing:-1px">3,800</tspan></text><text style="font-style:normal;font-weight:400;font-size:40px;line-height:125%;font-family:sans-serif;letter-spacing:0;word-spacing:0;fill:#000;fill-opacity:1;stroke:none;stroke-width:1px;stroke-linecap:butt;stroke-linejoin:miter;stroke-opacity:1" id="text132-7-3-6-23-5-2-8-7-6-2-3-9-7-4-5" x="1243.798" y="490.15" xml:space="preserve"><tspan id="tspan130-5-5-2-7-9-2-9-3-1-9-1-4-8-5-4" x="1243.798" y="490.15" style="font-size:18.66666603px;letter-spacing:-1px">4,000</tspan></text><text style="font-style:normal;font-weight:400;font-size:40px;line-height:125%;font-family:sans-serif;letter-spacing:0;word-spacing:0;fill:#000;fill-opacity:1;stroke:none;stroke-width:1px;stroke-linecap:butt;stroke-linejoin:miter;stroke-opacity:1" id="text132-7-3-6-23-5-2-8-7-6-2-3-9-7-4-7" x="1303.274" y="490.15" xml:space="preserve"><tspan id="tspan130-5-5-2-7-9-2-9-3-1-9-1-4-8-5-6" x="1303.274" y="490.15" style="font-size:18.66666603px;letter-spacing:-1px">4,200</tspan></text><text style="font-style:normal;font-weight:400;font-size:40px;line-height:125%;font-family:sans-serif;letter-spacing:0;word-spacing:0;fill:#000;fill-opacity:1;stroke:none;stroke-width:1px;stroke-linecap:butt;stroke-linejoin:miter;stroke-opacity:1" id="text132-7-3-6-23-5-2-8-7-6-2-3-9-7-4-56" x="1361.547" y="490.236" xml:space="preserve"><tspan id="tspan130-5-5-2-7-9-2-9-3-1-9-1-4-8-5-9" x="1361.547" y="490.236" style="font-size:18.66666603px;letter-spacing:-1px">4,400</tspan></text><text style="font-style:normal;font-weight:400;font-size:40px;line-height:125%;font-family:sans-serif;letter-spacing:0;word-spacing:0;fill:#000;fill-opacity:1;stroke:none;stroke-width:1px;stroke-linecap:butt;stroke-linejoin:miter;stroke-opacity:1" id="text132-7-3-6-23-5-2-8-7-6-2-3-9-7-4-3" x="1420.396" y="490.236" xml:space="preserve"><tspan id="tspan130-5-5-2-7-9-2-9-3-1-9-1-4-8-5-7" x="1420.396" y="490.236" style="font-size:18.66666603px;letter-spacing:-1px">4,600</tspan></text><text style="font-style:normal;font-weight:400;font-size:40px;line-height:125%;font-family:sans-serif;letter-spacing:0;word-spacing:0;fill:#000;fill-opacity:1;stroke:none;stroke-width:1px;stroke-linecap:butt;stroke-linejoin:miter;stroke-opacity:1" id="text132-7-3-6-23-5-2-8-7-6-2-3-9-7-4-4" x="1480.29" y="489.818" xml:space="preserve"><tspan id="tspan130-5-5-2-7-9-2-9-3-1-9-1-4-8-5-52" x="1480.29" y="489.818" style="font-size:18.66666603px;letter-spacing:-1px">4,800</tspan></text><text style="font-style:normal;font-weight:400;font-size:40px;line-height:125%;font-family:sans-serif;letter-spacing:0;word-spacing:0;fill:#000;fill-opacity:1;stroke:none;stroke-width:1px;stroke-linecap:butt;stroke-linejoin:miter;stroke-opacity:1" id="text132-7-3-6-23-5-2-8-7-6-2-3-9-7-4-54" x="1539.557" y="489.609" xml:space="preserve"><tspan id="tspan130-5-5-2-7-9-2-9-3-1-9-1-4-8-5-74" x="1539.557" y="489.609" style="font-size:18.66666603px;letter-spacing:-1px">5,000</tspan></text><text style="font-style:normal;font-weight:400;font-size:26.66666603px;line-height:125%;font-family:sans-serif;letter-spacing:0;word-spacing:0;fill:#000;fill-opacity:1;stroke:none;stroke-width:1px;stroke-linecap:butt;stroke-linejoin:miter;stroke-opacity:1" id="text650" x="100.341" y="68.13" xml:space="preserve"><tspan id="tspan648" x="100.341" y="68.13" style="font-size:24px;letter-spacing:-1px;word-spacing:5px">SQL Join</tspan></text><text style="font-style:normal;font-weight:400;font-size:26.66666603px;line-height:125%;font-family:sans-serif;letter-spacing:0;word-spacing:0;fill:#000;fill-opacity:1;stroke:none;stroke-width:1px;stroke-linecap:butt;stroke-linejoin:miter;stroke-opacity:1" id="text650-4" x="466.162" y="65.78" xml:space="preserve"><tspan id="tspan648-3" x="466.162" y="65.78" style="font-size:24px;letter-spacing:-.18000001px;word-spacing:5px">TeraSort</tspan></text><text style="font-style:normal;font-weight:400;font-size:26.66666603px;line-height:125%;font-family:sans-serif;letter-spacing:0;word-spacing:0;fill:#000;fill-opacity:1;stroke:none;stroke-width:1px;stroke-linecap:butt;stroke-linejoin:miter;stroke-opacity:1" id="text650-4-0" x="876.309" y="65.774" xml:space="preserve"><tspan id="tspan648-3-7" x="876.309" y="65.774" style="font-size:24px;letter-spacing:-1px;word-spacing:5px">KMeans</tspan></text><text style="font-style:normal;font-weight:400;font-size:26.66666603px;line-height:125%;font-family:sans-serif;letter-spacing:0;word-spacing:0;fill:#000;fill-opacity:1;stroke:none;stroke-width:1px;stroke-linecap:butt;stroke-linejoin:miter;stroke-opacity:1" id="text650-4-0-8" x="1291.789" y="66.616" xml:space="preserve"><tspan id="tspan648-3-7-6" x="1291.789" y="66.616" style="font-size:24px;letter-spacing:-1px;word-spacing:5px">PageRank</tspan></text><text style="font-style:normal;font-weight:400;font-size:40px;line-height:125%;font-family:sans-serif;letter-spacing:0;word-spacing:0;fill:#000;fill-opacity:1;stroke:none;stroke-width:1px;stroke-linecap:butt;stroke-linejoin:miter;stroke-opacity:1" id="text710" x="798.164" y="527.975" xml:space="preserve"><tspan id="tspan708" x="798.164" y="527.975" style="font-size:24px">Time(s)</tspan></text><text style="font-style:normal;font-weight:400;font-size:40px;line-height:125%;font-family:sans-serif;letter-spacing:0;word-spacing:0;fill:#000;fill-opacity:1;stroke:none;stroke-width:1px;stroke-linecap:butt;stroke-linejoin:miter;stroke-opacity:1" id="text714" x="1231.575" y="22.953" xml:space="preserve"><tspan id="tspan712" x="1231.575" y="22.953" style="font-size:26.66666603px;letter-spacing:-1.62px">proc.cpu.user : SparkExecutors</tspan></text><ellipse style="fill:#24221c;fill-opacity:1;stroke-width:1.07125795" id="path716" cx="1222.888" cy="14.638" rx="8.206" ry="8.576"/><path style="fill:none;fill-rule:evenodd;stroke:#000;stroke-width:3;stroke-linecap:butt;stroke-linejoin:miter;stroke-opacity:1;stroke-miterlimit:4;stroke-dasharray:none" id="path720" d="M 86.697493,74.522144 V 473.74781"/><path style="fill:none;fill-rule:evenodd;stroke:#000;stroke-width:1px;stroke-linecap:butt;stroke-linejoin:miter;stroke-opacity:1" id="path1396" d="m 1066.2282,135.29316 -6.0623,36.66962"/><path style="fill:none;fill-rule:evenodd;stroke:#000;stroke-width:1px;stroke-linecap:butt;stroke-linejoin:miter;stroke-opacity:1" id="path1400" d="m 1173.4277,144.60843 -6.0623,-10.79388"/><path style="fill:#ccc;fill-rule:evenodd;stroke:#e8e8e8;stroke-width:1.97500002;stroke-linecap:butt;stroke-linejoin:miter;stroke-miterlimit:4;stroke-dasharray:none;stroke-opacity:1" id="path726-3" d="M 263.83403,472.98557 263.99481,73.992898"/><path style="fill:#ccc;fill-rule:evenodd;stroke:#e8e8e8;stroke-width:1.97500002;stroke-linecap:butt;stroke-linejoin:miter;stroke-miterlimit:4;stroke-dasharray:none;stroke-opacity:1" id="path726-3-6" d="M 323.61808,472.83087 323.77886,73.838203"/><path style="fill:#ccc;fill-rule:evenodd;stroke:#e8e8e8;stroke-width:1.97500002;stroke-linecap:butt;stroke-linejoin:miter;stroke-miterlimit:4;stroke-dasharray:none;stroke-opacity:1" id="path726-3-6-7" d="M 381.95907,472.7786 382.11985,73.785937"/><path style="fill:#ccc;fill-rule:evenodd;stroke:#e8e8e8;stroke-width:1.97500002;stroke-linecap:butt;stroke-linejoin:miter;stroke-miterlimit:4;stroke-dasharray:none;stroke-opacity:1" id="path726-3-6-7-5" d="M 441.34562,472.7786 441.5064,73.78593"/><path style="fill:#ccc;fill-rule:evenodd;stroke:#e8e8e8;stroke-width:1.97500002;stroke-linecap:butt;stroke-linejoin:miter;stroke-miterlimit:4;stroke-dasharray:none;stroke-opacity:1" id="path726-3-6-7-3" d="M 500.10484,472.56949 500.26562,73.576833"/><path style="fill:#ccc;fill-rule:evenodd;stroke:#e8e8e8;stroke-width:1.97500002;stroke-linecap:butt;stroke-linejoin:miter;stroke-miterlimit:4;stroke-dasharray:none;stroke-opacity:1" id="path726-3-6-7-56" d="M 559.49138,472.7786 559.65216,73.785936"/><path style="fill:#ccc;fill-rule:evenodd;stroke:#e8e8e8;stroke-width:1.97500002;stroke-linecap:butt;stroke-linejoin:miter;stroke-miterlimit:4;stroke-dasharray:none;stroke-opacity:1" id="path726-3-6-7-2" d="M 618.25059,472.56948 618.41137,73.576823"/><path style="fill:#ccc;fill-rule:evenodd;stroke:#e8e8e8;stroke-width:1.97500002;stroke-linecap:butt;stroke-linejoin:miter;stroke-miterlimit:4;stroke-dasharray:none;stroke-opacity:1" id="path726-3-6-7-9" d="M 677.21893,472.56949 677.37971,73.57682"/><path style="fill:#ccc;fill-rule:evenodd;stroke:#e8e8e8;stroke-width:1.97500002;stroke-linecap:butt;stroke-linejoin:miter;stroke-miterlimit:4;stroke-dasharray:none;stroke-opacity:1" id="path726-3-6-7-1" d="M 736.60546,472.7786 736.76624,73.785936"/><path style="fill:#ccc;fill-rule:evenodd;stroke:#e8e8e8;stroke-width:1.97500002;stroke-linecap:butt;stroke-linejoin:miter;stroke-miterlimit:4;stroke-dasharray:none;stroke-opacity:1" id="path726-3-6-7-27" d="M 795.78289,472.56949 795.94367,73.576831"/><path style="fill:#ccc;fill-rule:evenodd;stroke:#e8e8e8;stroke-width:1.97500002;stroke-linecap:butt;stroke-linejoin:miter;stroke-miterlimit:4;stroke-dasharray:none;stroke-opacity:1" id="path726-3-6-7-0" d="M 854.75121,472.56949 854.91199,73.576836"/><path style="fill:#ccc;fill-rule:evenodd;stroke:#e8e8e8;stroke-width:1.97500002;stroke-linecap:butt;stroke-linejoin:miter;stroke-miterlimit:4;stroke-dasharray:none;stroke-opacity:1" id="path726-3-6-7-93" d="M 914.13777,472.7786 914.29855,73.785932"/><path style="fill:#ccc;fill-rule:evenodd;stroke:#e8e8e8;stroke-width:1.97500002;stroke-linecap:butt;stroke-linejoin:miter;stroke-miterlimit:4;stroke-dasharray:none;stroke-opacity:1" id="path726-3-6-7-6" d="M 146.29488,472.9877 146.45566,73.995044"/><path style="fill:#ccc;fill-rule:evenodd;stroke:#e8e8e8;stroke-width:1.97500002;stroke-linecap:butt;stroke-linejoin:miter;stroke-miterlimit:4;stroke-dasharray:none;stroke-opacity:1" id="path726-3-6-7-06" d="M 204.74044,472.88315 204.90122,73.890489"/><path style="fill:#ccc;fill-rule:evenodd;stroke:#e8e8e8;stroke-width:1.97500002;stroke-linecap:butt;stroke-linejoin:miter;stroke-miterlimit:4;stroke-dasharray:none;stroke-opacity:1" id="path726-3-6-7-26" d="M 972.89698,472.7786 973.05776,73.785939"/><path style="fill:#ccc;fill-rule:evenodd;stroke:#e8e8e8;stroke-width:1.97500002;stroke-linecap:butt;stroke-linejoin:miter;stroke-miterlimit:4;stroke-dasharray:none;stroke-opacity:1" id="path726-3-6-7-18" d="m 1031.8653,472.77859 0.1608,-398.992657"/><path style="fill:#ccc;fill-rule:evenodd;stroke:#e8e8e8;stroke-width:1.97500002;stroke-linecap:butt;stroke-linejoin:miter;stroke-miterlimit:4;stroke-dasharray:none;stroke-opacity:1" id="path726-3-6-7-7" d="m 1091.4609,472.93914 0.1608,-398.992656"/><path style="fill:#ccc;fill-rule:evenodd;stroke:#e8e8e8;stroke-width:1.97500002;stroke-linecap:butt;stroke-linejoin:miter;stroke-miterlimit:4;stroke-dasharray:none;stroke-opacity:1" id="path726-3-6-7-92" d="m 1149.9113,472.81807 0.1608,-398.992662"/><path style="fill:#ccc;fill-rule:evenodd;stroke:#e8e8e8;stroke-width:1.97500002;stroke-linecap:butt;stroke-linejoin:miter;stroke-miterlimit:4;stroke-dasharray:none;stroke-opacity:1" id="path726-3-6-7-02" d="m 1209.1298,472.89238 0.1608,-398.992658"/><path style="fill:#ccc;fill-rule:evenodd;stroke:#e8e8e8;stroke-width:1.97500002;stroke-linecap:butt;stroke-linejoin:miter;stroke-miterlimit:4;stroke-dasharray:none;stroke-opacity:1" id="path726-3-6-7-37" d="m 1268.6236,472.74271 0.1608,-398.99265"/><path style="fill:#ccc;fill-rule:evenodd;stroke:#e8e8e8;stroke-width:1.97500002;stroke-linecap:butt;stroke-linejoin:miter;stroke-miterlimit:4;stroke-dasharray:none;stroke-opacity:1" id="path726-3-6-7-59" d="m 1327.5667,472.74414 0.1608,-398.992661"/><path style="fill:#ccc;fill-rule:evenodd;stroke:#e8e8e8;stroke-width:1.97500002;stroke-linecap:butt;stroke-linejoin:miter;stroke-miterlimit:4;stroke-dasharray:none;stroke-opacity:1" id="path726-3-6-7-22" d="m 1386.7113,472.74414 0.1608,-398.992663"/><path style="fill:#ccc;fill-rule:evenodd;stroke:#e8e8e8;stroke-width:1.97500002;stroke-linecap:butt;stroke-linejoin:miter;stroke-miterlimit:4;stroke-dasharray:none;stroke-opacity:1" id="path726-3-6-7-8" d="m 1445.7079,472.74414 0.1608,-398.992659"/><path style="fill:#ccc;fill-rule:evenodd;stroke:#e8e8e8;stroke-width:1.97500002;stroke-linecap:butt;stroke-linejoin:miter;stroke-miterlimit:4;stroke-dasharray:none;stroke-opacity:1" id="path726-3-6-7-97" d="m 1504.8525,472.59627 0.1607,-398.992656"/><path style="fill:#ccc;fill-rule:evenodd;stroke:#e8e8e8;stroke-width:1.975;stroke-linecap:butt;stroke-linejoin:miter;stroke-miterlimit:4;stroke-dasharray:none;stroke-opacity:1" id="path726-3-6-7-36" d="m 1564.4406,472.44842 0.1608,-398.992666"/><path style="fill:none;fill-rule:evenodd;stroke:#000;stroke-width:2;stroke-linecap:butt;stroke-linejoin:miter;stroke-opacity:1;stroke-miterlimit:4;stroke-dasharray:none" id="path5222" d="m 578.18233,171.34234 -7.26648,14.32387 -5.75045,-5.01858 -5.85502,-0.36594 -5.80273,-7.99836 -6.16867,11.13497 -11.55319,-46.99692 -5.95957,28.90912 -6.01184,-19.39472 -6.16867,-8.31203 -5.64591,48.93116 -5.85501,-12.96466 -6.01184,52.9042 -5.85501,-71.41022 -6.16867,-0.26138 -5.75046,25.98161 -4.80947,-25.61568 -7.0051,-21.95629 -6.32551,9.09618 -5.12313,-0.52277 -6.01184,-4.75719 -5.17539,10.14171 c -0.0174,0.10455 -0.0349,0.20911 -0.0523,0.31366 l -7.31877,9.20073 -4.9663,-2.50929 -6.84827,30.11149 -5.07086,0.52277 -4.60037,-33.19582 -1.82969,-11.29181 -5.48907,-6.43006 -6.27323,21.32897 -6.01184,-23.99509 -5.90729,3.86849 -12.23279,22.11312 -5.27996,3.13662 -5.90729,13.43515 -5.6459,-29.43188 -6.01184,-13.01695 -6.06412,29.69328 -5.73753,-9.33803 -11.45925,20.55273 -6.35804,-19.36984 -5.84052,-4.36191 -5.7666,3.69654 -6.13624,-22.03135 -5.48963,18.35768 -6.58689,-7.94609 -5.85501,-12.33734 -5.54135,12.75556 -5.75046,27.28853 -6.16867,-10.55993 -11.81458,36.07105 -6.37778,94.72572 -11.0827,6.69144 -6.06412,-17.8787 -6.06411,-0.73187 -5.75046,11.18725 -11.81458,-81.34283 -6.37778,7.42332 -5.33224,177.63685 -18.0878,-220.5039 -5.64591,57.71368 -6.19142,-66.50147 -5.61873,-11.97677 -5.69266,-2.29185 -5.98839,12.23553 -5.72962,-8.35417 -6.7277,-0.14786 -5.02728,8.28024 -6.06232,-11.23747 -5.65697,1.47394 -6.58689,21.85174 -5.75046,-19.96977 -5.12313,2.19563 -7.00511,23.00183 -11.710019,215.58987 -5.332242,18.81968"/><path style="fill:none;fill-rule:evenodd;stroke:#000;stroke-width:2;stroke-linecap:butt;stroke-linejoin:miter;stroke-opacity:1;stroke-miterlimit:4;stroke-dasharray:none" id="path5238" d="m 578.18233,171.34234 10.50766,-31.47068 5.95957,68.16905 5.59363,-8.73024 5.90728,-32.7776 6.53461,-6.01184 5.90729,20.8062 5.48907,-19.70839 6.22095,34.50274 5.80274,3.08434 5.80273,-2.45701 5.95957,13.80109 5.95956,41.71696 5.70859,9.15194 c 0.0986,-0.12322 0.19715,-0.24644 0.29573,-0.36965 l 5.88867,-6.92646 6.53461,7.39718 5.07086,9.80191 5.93343,16.46722 6.01184,-30.24218 6.01184,5.80274 -0.36594,-0.36594 5.59363,-7.84153 7.05738,-1.15009 5.33224,-3.55483 11.91913,58.86377 5.75046,-8.62569 6.3255,17.66959 5.54135,47.36286 5.85501,6.06412 5.80274,16.83315 6.06411,-7.47559 5.22769,5.01858 6.53461,19.65611 12.12824,21.74718 5.54135,19.96977 5.38452,3.60711 12.80783,-114.9046 5.4368,-159.33994 6.27323,-17.87869 5.54135,4.70492 6.16867,11.71002 7.10966,-7.94609 4.49581,-12.54645 11.71002,161.64013 5.95956,-3.24117 5.95957,-21.11986 6.06412,54.0543 6.06412,-104.13556 17.77414,162.26745 6.06412,-23.10638 3.34572,-55.72716 1.98652,-32.09801 5.85501,-15.16029 6.58689,41.8215 5.58224,-170.04305 5.91445,30.6073 18.33481,184.38311 5.32301,-18.33481 6.06232,-57.07448 5.61873,86.35103 6.06231,-212.47677 5.61873,185.12242 6.06232,-94.92699 5.91445,61.80605 6.06232,-31.05089 5.61869,85.16814 6.0624,-64.61541 5.9144,101.28503 5.6187,-143.8691 6.2102,80.28872 11.5332,57.51806 12.2725,7.39307 5.4709,-193.40265 5.4708,-47.75922 5.4709,-32.82522 7.0974,-14.78614 5.323,2.6615 6.0623,-2.6615 6.2102,6.35804 6.0623,12.42035 5.9144,7.54093 5.7666,-12.71607 5.9145,5.47087 6.9495,-9.46313 5.1751,-17.15192 4.288,3.99226 12.5682,-0.29572 6.0623,5.76659 6.8016,25.58001 6.0624,-17.29978 4.7315,4.73157 6.0623,10.79388 6.3581,-20.18308 5.6187,30.38551 6.432,-10.49816 5.7666,30.23765 5.9883,47.01991 5.6927,18.03909 6.0623,-3.17902 5.5448,32.5295 6.1363,-0.22179 11.681,75.26143 6.1363,-12.71608 5.6926,54.48691 11.4593,26.83684 6.2102,0.14786 5.9144,6.57983 5.6187,-0.9611 c -0.1478,-0.0739 -0.2957,-0.14786 -0.4435,-0.22179 l 6.8755,-6.06232 13.0118,0.1109 4.1032,-1.36772 5.286,1.03503 6.9865,0.0739 5.7296,-2.18092 6.0253,2.36578 6.0993,-52.23203 6.2102,11.23747 5.7666,-11.38533 6.5059,1.18289 4.8794,2.51365 5.7666,-8.4281 6.2102,4.87942 6.0623,42.8798 11.3853,40.36615 6.5059,-301.04573 5.7666,6.65376 6.3581,-24.69284 6.9494,0.14786 3.6966,1.47861 6.358,-0.29572 6.8016,-4.87942 11.2375,71.26917 6.0623,-18.33481 5.9145,15.67331 8.1323,65.35471 5.3231,74.81785 4.1401,81.76733 5.7666,1.47862 5.9144,-108.6781 c 0.099,-0.34501 0.1972,-0.69002 0.2957,-1.03503 l 3.5487,-98.3278 1.6265,-62.84108 6.358,-15.52544 11.5332,22.47492 5.9145,-20.99631 6.2101,-7.09734 7.2452,27.05862 5.0273,43.02766 10.7939,169.59698 5.7666,-112.67036 5.1752,-93.30052 1.1828,-27.79793 6.3581,11.23746 5.7666,-1.33075 6.0623,12.86394 3.9922,101.58075 7.6888,96.40561 6.2102,-67.27692 5.4709,-55.59587"/><path style="fill:#000;fill-rule:evenodd;stroke:#000;stroke-width:3.07500005;stroke-linecap:butt;stroke-linejoin:miter;stroke-miterlimit:4;stroke-dasharray:24.60000038,24.60000038;stroke-dashoffset:9.53250027;stroke-opacity:1" id="path726-3-6-7-1-1" d="M 792.49634,472.57308 792.65712,73.58042"/><path style="fill:#000;fill-rule:evenodd;stroke:#000;stroke-width:3.07500005;stroke-linecap:butt;stroke-linejoin:miter;stroke-miterlimit:4;stroke-dasharray:24.60000038,24.60000038;stroke-dashoffset:9.53250027;stroke-opacity:1" id="path726-3-6-7-1-1-2" d="m 1041.8866,472.52197 0.1608,-398.992656"/><path style="fill:#000;fill-rule:evenodd;stroke:#000;stroke-width:3.07500005;stroke-linecap:butt;stroke-linejoin:miter;stroke-miterlimit:4;stroke-dasharray:24.60000038,24.60000038;stroke-dashoffset:9.53250027;stroke-opacity:1" id="path726-3-6-7-1-1-9" d="M 202.85847,472.67404 203.01925,73.681384"/><path style="fill:none;fill-rule:evenodd;stroke:#000;stroke-width:3.00394273;stroke-linecap:butt;stroke-linejoin:miter;stroke-miterlimit:4;stroke-dasharray:none;stroke-opacity:1" id="path724" d="M 85.659731,473.43415 1595.9279,472.97996"/></svg>